<?xml version="1.0" standalone="no"?>
<!DOCTYPE svg PUBLIC "-//W3C//DTD SVG 1.1//EN" "http://www.w3.org/Graphics/SVG/1.1/DTD/svg11.dtd" >
<svg xmlns="http://www.w3.org/2000/svg" xmlns:xlink="http://www.w3.org/1999/xlink" version="1.1">
<metadata>
Created by FontForge 20150824 at Mon Jan 11 18:53:35 2016
 By Everything Fonts
(c) Copyright 2005 by Tong Duc Thinh. All Rights Reserved
</metadata>
<defs>
<font id="SFUEurostileBoldCondensed" horiz-adv-x="464" >
  <font-face 
    font-family="SFUEurostileBoldCondensed"
    font-weight="400"
    font-stretch="normal"
    units-per-em="1000"
    panose-1="0 0 4 0 0 0 0 0 0 0"
    ascent="800"
    descent="-200"
    x-height="510"
    cap-height="724"
    bbox="-166 -228 1031 1145"
    underline-thickness="50"
    underline-position="-175"
    unicode-range="U+0020-F002"
  />
<missing-glyph horiz-adv-x="500" 
d="M63 0v1134h375v-1134h-375zM125 63h250v1009h-250v-1009z" />
    <glyph glyph-name=".notdef" horiz-adv-x="500" 
d="M63 0v1134h375v-1134h-375zM125 63h250v1009h-250v-1009z" />
    <glyph glyph-name=".null" horiz-adv-x="0" 
 />
    <glyph glyph-name="glyph2" horiz-adv-x="250" 
 />
    <glyph glyph-name="space" unicode=" " horiz-adv-x="250" 
 />
    <glyph glyph-name="exclam" unicode="!" horiz-adv-x="278" 
d="M65 222v502h148v-502h-148zM65 0v154h148v-154h-148z" />
    <glyph glyph-name="quotedbl" unicode="&#x22;" horiz-adv-x="407" 
d="M226 412v312h112v-312h-112zM69 412v312h112v-312h-112z" />
    <glyph glyph-name="numbersign" unicode="#" horiz-adv-x="500" 
d="M291 295l17 134h-99l-17 -134h99zM4 207v88h94l17 134h-82v88h94l28 207h94l-28 -207h99l28 207h94l-28 -207h82v-88h-94l-17 -134h81v-88h-93l-28 -207h-94l28 207h-99l-28 -207h-94l28 207h-82z" />
    <glyph glyph-name="dollar" unicode="$" horiz-adv-x="500" 
d="M223 451v163q-33 -1 -41 -20q-4 -9 -4 -50q0 -46 6 -61q8 -20 39 -32zM280 295v-184q34 2 42 19q4 9 4 52v27q0 42 -6 55q-8 18 -40 31zM32 168v61h136v-60q0 -34 6 -44q9 -14 40 -15v206q-1 0 -6 2q-116 39 -136 60q-36 38 -36 142q0 121 33 162q37 47 154 50v81h66v-81
q93 -2 127 -22q48 -28 48 -112v-83h-130v65q0 23 -12 30q-7 3 -33 4v-183q1 -1 3 -1q122 -33 152 -77q24 -36 24 -158q0 -109 -40.5 -154t-147.5 -49v-94h-66v94q-92 2 -131 32q-51 40 -51 144z" />
    <glyph glyph-name="percent" unicode="%" horiz-adv-x="870" 
d="M29 414v175q0 80 39 113q36 30 117 30q83 0 119.5 -31t36.5 -112v-175q0 -81 -36.5 -112t-119.5 -31q-81 0 -117 30q-39 33 -39 113zM141 586v-175q0 -34 44 -34t44 34v175q0 34 -44 34t-44 -34zM529 135v175q0 80 39 113q36 30 117 30q83 0 119.5 -31t36.5 -112v-175
q0 -81 -36.5 -112t-119.5 -31q-81 0 -117 30q-39 33 -39 113zM641 307v-175q0 -34 44 -34t44 34v175q0 34 -44 34t-44 -34zM185 -8l396 739h103l-396 -739h-103z" />
    <glyph glyph-name="ampersand" unicode="&#x26;" horiz-adv-x="556" 
d="M185 257v-87q0 -27 4 -37q9 -23 65 -23q35 0 47 4q22 7 22 35q0 11 -3 15l-97 137q-1 3 -10 3q-28 0 -28 -47zM37 137v143q0 120 110 132q-36 47 -52 79q-23 47 -23 91q0 93 48 125q38 25 138 25q103 0 139 -24q47 -31 47 -126v-52h-142v42q0 25 -10 33.5t-36 8.5
q-36 0 -36 -37q0 -22 9 -35l111 -165h2v69h130v-251l86 -123l-110 -80q-17 14 -28 38q-41 -38 -135 -38h-73q-85 0 -126 29q-49 35 -49 116z" />
    <glyph glyph-name="quotesingle" unicode="'" horiz-adv-x="222" 
d="M55 412v312h112v-312h-112z" />
    <glyph glyph-name="parenleft" unicode="(" horiz-adv-x="333" 
d="M57 186v352q0 96 38 143q42 51 136 51h45v-118q-65 0 -65 -87v-330q0 -79 65 -87v-118h-45q-94 0 -136 51q-38 47 -38 143z" />
    <glyph glyph-name="parenright" unicode=")" horiz-adv-x="333" 
d="M57 -8v118q65 0 65 87v330q0 79 -65 87v118h45q94 0 136 -51q38 -47 38 -143v-352q0 -96 -38 -143q-42 -51 -136 -51h-45z" />
    <glyph glyph-name="asterisk" unicode="*" 
d="M170 542v-84l62 -48l62 48v84l-62 48zM82 311l82 147l-142 -14v108l142 -10l-82 143l103 47l46 -136h2l46 136l103 -47l-82 -143l142 10v-108l-142 14l82 -147l-102 -47l-47 140h-2l-47 -140z" />
    <glyph glyph-name="plus" unicode="+" horiz-adv-x="600" 
d="M47 197v112h197v197h112v-197h197v-112h-197v-197h-112v197h-197z" />
    <glyph glyph-name="comma" unicode="," horiz-adv-x="250" 
d="M56 -158v76q59 9 59 63v9q-1 6 -1 10h-63v154h148v-172q0 -67 -38 -103.5t-105 -36.5z" />
    <glyph glyph-name="hyphen" unicode="-" horiz-adv-x="333" 
d="M36 200v130h261v-130h-261z" />
    <glyph glyph-name="hyphen" unicode="&#x2010;" horiz-adv-x="333" 
d="M36 200v130h261v-130h-261z" />
    <glyph glyph-name="period" unicode="." horiz-adv-x="250" 
d="M51 0v154h148v-154h-148z" />
    <glyph glyph-name="slash" unicode="/" horiz-adv-x="296" 
d="M-40 -8l257 740h119l-257 -740h-119z" />
    <glyph glyph-name="zero" unicode="0" horiz-adv-x="500" 
d="M208 581v-438q0 -33 42 -33t42 33v444q0 27 -42 27t-42 -33zM42 159v385q0 109 51 151q46 37 157 37q115 0 159 -35q49 -41 49 -153v-385q0 -102 -55 -138q-44 -29 -153 -29t-153 29q-55 36 -55 138z" />
    <glyph glyph-name="one" unicode="1" horiz-adv-x="500" 
d="M15 524l154 200h210v-724h-166v600h-2l-107 -163z" />
    <glyph glyph-name="two" unicode="2" horiz-adv-x="500" 
d="M56 457v116q0 96 52 131q41 28 142 28q79 0 114 -12q57 -20 70 -80q8 -37 8 -140q0 -117 -18 -151q-22 -41 -120 -86q-54 -25 -72 -42q-29 -28 -29 -75v-22h235v-124h-389v150q0 83 42 134q35 42 117 79q45 20 56.5 37.5t11.5 66.5v78q0 37 -2 45q-6 24 -30 24
q-34 0 -34 -31v-126h-154z" />
    <glyph glyph-name="three" unicode="3" horiz-adv-x="500" 
d="M37 513v79q0 83 62 116q46 24 137 24q109 0 149 -29q49 -35 49 -137q0 -92 -9 -119q-17 -52 -87 -64v-2q68 -10 88 -52q16 -33 16 -135q0 -119 -44.5 -160.5t-165.5 -41.5q-120 0 -161 37q-34 30 -34 110v102h154v-82q0 -28 8.5 -38.5t35.5 -10.5q37 0 45 35q2 9 2 66
q0 66 -4 76q-11 27 -61 27h-71v118h45q62 0 76 30q7 15 7 90q0 36 -4 45q-7 17 -36 17q-23 0 -32 -5q-11 -8 -11 -30v-66h-154z" />
    <glyph glyph-name="four" unicode="4" horiz-adv-x="500" 
d="M19 149v173l157 402h247v-451h45v-124h-45v-149h-154v149h-250zM269 273v363h-2l-118 -363h120z" />
    <glyph glyph-name="five" unicode="5" horiz-adv-x="500" 
d="M51 151v69h154v-81q0 -29 40 -29q38 0 38 29v223q0 30 -41 30q-43 0 -43 -30v-30h-136v392h355v-124h-207v-138h2q24 48 99 48q74 0 105.5 -32.5t31.5 -106.5v-221q0 -96 -60 -132q-44 -26 -141 -26q-104 0 -145 27q-52 34 -52 132z" />
    <glyph glyph-name="six" unicode="6" horiz-adv-x="500" 
d="M210 305v-155q0 -23 9 -31.5t33 -8.5q25 0 34.5 8t9.5 32v155q0 24 -9.5 32t-34.5 8q-24 0 -33 -8.5t-9 -31.5zM44 140v443q0 91 57 124q43 25 142 25q96 0 133 -14q65 -25 65 -101v-86h-148v47q0 36 -42 36q-41 0 -41 -36v-169h2q38 48 102 48q72 0 105 -26
q37 -30 37 -100v-182q0 -100 -55 -133q-40 -24 -151 -24q-110 0 -150 21q-56 30 -56 127z" />
    <glyph glyph-name="seven" unicode="7" horiz-adv-x="500" 
d="M51 600v124h368v-123l-155 -601h-168l159 600h-204z" />
    <glyph glyph-name="eight" unicode="8" horiz-adv-x="500" 
d="M204 279v-134q0 -35 46 -35t46 35v134q0 35 -46 35t-46 -35zM204 578v-122q0 -36 46 -36t46 36v122q0 36 -46 36t-46 -36zM32 195q0 82 16 116q23 49 91 64l-1 -1v2q-60 16 -80 57q-14 29 -14 100q0 111 33 150q42 49 173 49t173 -49q33 -39 33 -150q0 -72 -14 -101
q-19 -40 -80 -57l-1 1v-2q68 -14 91 -63q16 -34 16 -116q0 -113 -53 -160q-50 -43 -165 -43t-165 43q-53 47 -53 160z" />
    <glyph glyph-name="nine" unicode="9" horiz-adv-x="500" 
d="M203 580v-138q0 -40 47 -40t47 38v140q0 22 -14 29q-8 5 -33 5q-47 0 -47 -34zM43 125v93h160v-72q0 -22 10 -29t34 -7q48 0 48 41v191h-4q-18 -32 -43 -43q-20 -9 -60 -9q-99 0 -128 42q-23 34 -23 146q0 119 11 163q16 63 81 81q36 10 123 10q113 0 153 -22
q58 -32 58 -133v-341q0 -162 -50 -207q-41 -37 -187 -37q-119 0 -154 31q-29 25 -29 102z" />
    <glyph glyph-name="colon" unicode=":" horiz-adv-x="250" 
d="M51 0v154h148v-154h-148zM51 356v154h148v-154h-148z" />
    <glyph glyph-name="semicolon" unicode=";" horiz-adv-x="250" 
d="M56 -158v76q59 9 59 63v9q-1 6 -1 10h-63v154h148v-172q0 -67 -38 -103.5t-105 -36.5zM51 356v154h148v-154h-148z" />
    <glyph glyph-name="less" unicode="&#x3c;" horiz-adv-x="600" 
d="M47 208v90l506 216v-108l-362 -153l362 -153v-108z" />
    <glyph glyph-name="equal" unicode="=" horiz-adv-x="600" 
d="M47 309v112h506v-112h-506zM47 85v112h506v-112h-506z" />
    <glyph glyph-name="greater" unicode="&#x3e;" horiz-adv-x="600" 
d="M47 -8v108l362 153l-362 153v108l506 -216v-90z" />
    <glyph glyph-name="question" unicode="?" horiz-adv-x="426" 
d="M7 504v61q0 99 42 135q38 32 139 32q135 0 175 -36q44 -38 44 -171q0 -89 -16 -123q-12 -25 -45 -46q-49 -31 -55 -36q-21 -19 -21 -47v-52h-154v80q0 49 18 73q13 18 60 48q39 25 47 49q6 18 6 71q0 42 -3 50q-8 22 -40 22q-43 0 -43 -35v-75h-154zM116 0v154h154v-154
h-154z" />
    <glyph glyph-name="at" unicode="@" horiz-adv-x="800" 
d="M306 330q0 -78 73 -80q46 -1 78.5 33.5t32.5 80.5q0 36 -21.5 60t-57.5 24q-45 0 -75 -36t-30 -82zM520 495l12 48h92l-51 -243q-7 -33 -7 -45q0 -14 13 -14q49 0 79 58q24 47 24 100q0 118 -77 183q-72 62 -192 62q-124 0 -200.5 -78.5t-76.5 -203.5q0 -130 84 -207
q81 -75 212 -75q115 0 200 69l93 -4q-110 -152 -303 -153q-168 -1 -278 100q-114 103 -114 270q0 161 114 267q111 103 273 103q141 0 243 -79q110 -86 110 -223q0 -142 -105 -225q-78 -61 -152 -61q-54 0 -56 52h-2q-37 -52 -101 -52q-69 0 -117.5 52.5t-48.5 122.5
q0 95 57 163q60 72 153 72q80 0 122 -59z" />
    <glyph glyph-name="A" unicode="A" horiz-adv-x="520" 
d="M300 298l-39 326h-2l-39 -326h80zM16 0l109 724h270l109 -724h-169l-21 174h-108l-21 -174h-169z" />
    <glyph glyph-name="B" unicode="B" horiz-adv-x="538" 
d="M221 601v-172h40q35 0 46 15q8 12 8 49v44q0 36 -10 49.5t-44 13.5h-42zM55 0v724h245q106 0 143.5 -35t37.5 -140q0 -83 -16 -115q-22 -45 -92 -57v-2q71 -6 99 -54q21 -37 21 -115q0 -107 -29 -151q-36 -55 -137 -55h-272zM221 311v-187h49q34 0 44 17q7 12 7 50v54
q0 34 -8 48q-11 18 -43 18h-49z" />
    <glyph glyph-name="C" unicode="C" horiz-adv-x="500" 
d="M45 147v409q0 90 39 133t128 43h62q89 0 129 -19q60 -28 60 -105v-132h-160v95q0 31 -42 31q-44 0 -44 -31v-418q0 -31 43 -31t43 31v114h160v-107q0 -97 -47 -135q-42 -33 -142 -33h-62q-167 0 -167 155z" />
    <glyph glyph-name="D" unicode="D" horiz-adv-x="520" 
d="M221 600v-470h44q30 0 39 22q5 12 5 48v330q0 36 -5 48q-9 22 -39 22h-44zM55 0v724h216q121 0 160 -47q44 -53 44 -225v-181q0 -172 -44 -225q-38 -46 -160 -46h-216z" />
    <glyph glyph-name="E" unicode="E" horiz-adv-x="426" 
d="M55 0v724h319v-130h-153v-159h142v-124h-142v-181h165v-130h-331z" />
    <glyph glyph-name="F" unicode="F" horiz-adv-x="389" 
d="M55 0v724h313v-130h-147v-179h134v-130h-134v-285h-166z" />
    <glyph glyph-name="G" unicode="G" horiz-adv-x="520" 
d="M45 141v442q0 91 66 125q47 24 149 24q110 0 156 -30q59 -38 59 -141v-71h-160v76q0 42 -54 42q-44 0 -44 -45v-420q0 -27 45 -27q53 0 53 24v114h-51v136h211v-233q0 -106 -57 -140q-42 -25 -158 -25q-102 0 -149 24q-66 34 -66 125z" />
    <glyph glyph-name="H" unicode="H" horiz-adv-x="538" 
d="M55 0v724h166v-283h96v283h166v-724h-166v311h-96v-311h-166z" />
    <glyph glyph-name="I" unicode="I" horiz-adv-x="296" 
d="M65 0v724h166v-724h-166z" />
    <glyph glyph-name="J" unicode="J" horiz-adv-x="426" 
d="M15 122v139h148v-111q0 -28 26 -28t26 28v574h166v-578q0 -93 -56 -127q-43 -27 -142 -27q-82 0 -120 23q-48 30 -48 107z" />
    <glyph glyph-name="K" unicode="K" horiz-adv-x="520" 
d="M55 0v724h166l-1 -307h2l106 307h178l-141 -344l159 -380h-178l-124 323h-2l1 -2v-321h-166z" />
    <glyph glyph-name="L" unicode="L" horiz-adv-x="407" 
d="M55 0v724h166v-594h161v-130h-327z" />
    <glyph glyph-name="M" unicode="M" horiz-adv-x="796" 
d="M297 0l-92 612h-2v-612h-148v724h261l81 -570h2l81 570h261v-724h-151l6 610h-2l-107 -610h-190z" />
    <glyph glyph-name="N" unicode="N" horiz-adv-x="630" 
d="M327 0l-121 564h-2l10 -564h-153v724h242l122 -564l2 2l-12 562h154v-724h-242z" />
    <glyph glyph-name="O" unicode="O" horiz-adv-x="520" 
d="M303 150v424q0 34 -43 34t-43 -34v-424q0 -34 43 -34t43 34zM45 141v442q0 91 66 125q47 24 149 24t149 -24q66 -34 66 -125v-442q0 -91 -66 -125q-47 -24 -149 -24t-149 24q-66 34 -66 125z" />
    <glyph glyph-name="P" unicode="P" horiz-adv-x="500" 
d="M55 0v724h239q96 0 140.5 -40.5t44.5 -135.5v-126q0 -119 -41 -166q-43 -50 -161 -50h-56v-206h-166zM221 336h49q37 0 37 53v174q0 31 -38 31h-48v-258z" />
    <glyph glyph-name="Q" unicode="Q" horiz-adv-x="520" 
d="M217 574v-424q0 -34 43 -34t43 34v6l-71 102l51 67l18 -28h2v277q0 34 -43 34t-43 -34zM45 141v442q0 91 66 125q47 24 149 24t149 -24q66 -34 66 -125v-442q0 -39 -12 -68l36 -50l-56 -68l-41 59q-45 -22 -142 -22q-102 0 -149 24q-66 34 -66 125z" />
    <glyph glyph-name="R" unicode="R" horiz-adv-x="538" 
d="M221 600v-226h32q40 0 54.5 12t14.5 51v109q0 54 -51 54h-50zM55 0v724h205q122 0 167 -27q61 -36 61 -146v-87q0 -67 -23 -100q-26 -36 -90 -47v-2q62 -14 84 -32q29 -24 29 -86v-197h-166v207q0 43 -73 43h-28v-250h-166z" />
    <glyph glyph-name="S" unicode="S" horiz-adv-x="500" 
d="M195 238v-52q0 -43 6 -54q9 -16 43 -16q49 0 49 43v78q0 41 -30 56q-8 4 -68 18q-93 22 -123.5 59t-30.5 132v44q0 120 46 156q39 30 164 30q93 0 135 -24q57 -32 57 -117v-87h-148v35q0 42 -4 51q-8 18 -43 18q-29 0 -38 -11t-9 -41v-48q0 -34 14 -47q11 -10 47 -19
q135 -35 165 -70q32 -38 32 -175q0 -124 -50 -168q-42 -37 -155 -37q-124 0 -165 32q-48 37 -48 154v60h154z" />
    <glyph glyph-name="T" unicode="T" horiz-adv-x="426" 
d="M130 0v594h-116v130h398v-130h-116v-594h-166z" />
    <glyph glyph-name="U" unicode="U" horiz-adv-x="520" 
d="M470 724v-551q0 -112 -55 -151q-43 -30 -155 -30t-155 30q-55 39 -55 151v551h166v-556q0 -46 44 -46t44 46v556h166z" />
    <glyph glyph-name="V" unicode="V" horiz-adv-x="500" 
d="M109 0l-96 724h170l66 -636h2l66 636h170l-96 -724h-282z" />
    <glyph glyph-name="W" unicode="W" horiz-adv-x="796" 
d="M94 0l-81 724h160l45 -618h2l66 618h224l66 -618h2l45 618h160l-81 -724h-234l-69 600h-2l-69 -600h-234z" />
    <glyph glyph-name="X" unicode="X" horiz-adv-x="500" 
d="M21 0l90 380l-82 344h163l57 -303h2l57 303h163l-82 -344l90 -380h-169l-59 323h-2l-59 -323h-169z" />
    <glyph glyph-name="Y" unicode="Y" 
d="M152 0v234l-152 490h164l67 -326h2l67 326h164l-152 -490v-234h-160z" />
    <glyph glyph-name="Z" unicode="Z" horiz-adv-x="426" 
d="M44 594v130h345v-126l-185 -468h185v-130h-364v124l186 470h-167z" />
    <glyph glyph-name="bracketleft" unicode="[" horiz-adv-x="333" 
d="M57 0v724h219v-118h-65v-488h65v-118h-219z" />
    <glyph glyph-name="backslash" unicode="\" horiz-adv-x="296" 
d="M217 -8l-257 740h119l257 -740h-119z" />
    <glyph glyph-name="bracketright" unicode="]" horiz-adv-x="333" 
d="M122 118v488h-65v118h219v-724h-219v118h65z" />
    <glyph glyph-name="asciicircum" unicode="^" horiz-adv-x="600" 
d="M70 349l180 375h100l180 -375h-110l-120 263l-120 -263h-110z" />
    <glyph glyph-name="underscore" unicode="_" horiz-adv-x="500" 
d="M0 -125v50h500v-50h-500z" />
    <glyph glyph-name="grave" unicode="`" horiz-adv-x="242" 
d="M104 576l-148 148h155l92 -148h-99z" />
    <glyph glyph-name="a" unicode="a" horiz-adv-x="444" 
d="M45 364v64q0 61 56 80q30 10 107 10q106 0 144 -25q45 -30 45 -119v-374h-142v43h-2q-23 -31 -44.5 -41t-62.5 -10q-75 0 -103 48q-20 35 -20 117q0 78 24 113q30 43 104 43q58 0 98 -33v113q0 25 -38 25q-36 0 -36 -26v-28h-130zM177 176v-29q0 -43 36 -43t36 37v41
q0 37 -36 37t-36 -43z" />
    <glyph glyph-name="b" unicode="b" 
d="M195 372v-234q0 -28 34 -28t34 28v234q0 28 -34 28t-34 -28zM47 0v724h148v-259h2q37 53 109 53q111 0 111 -103v-284q0 -73 -23 -104q-27 -35 -98 -35q-42 0 -64 12.5t-42 48.5h-2v-53h-141z" />
    <glyph glyph-name="c" unicode="c" horiz-adv-x="444" 
d="M37 154v202q0 98 55 134q43 28 147 28q162 0 162 -98v-87h-130v26q0 47 -40 47t-40 -47v-208q0 -47 40 -47t40 47v48h136v-45q0 -93 -27 -123q-35 -39 -147 -39q-101 0 -144 29q-52 36 -52 133z" />
    <glyph glyph-name="d" unicode="d" 
d="M47 131v284q0 103 111 103q72 0 109 -53h2v259h148v-724h-141v53h-2q-21 -36 -43.5 -48.5t-64.5 -12.5q-69 0 -96 36q-23 31 -23 103zM201 372v-234q0 -28 34 -28t34 28v234q0 28 -34 28t-34 -28z" />
    <glyph glyph-name="e" unicode="e" 
d="M37 154v202q0 95 52 132q43 30 143 30q92 0 136 -24q59 -33 59 -117v-158h-236v-86q0 -23 11 -30q8 -5 33 -5q42 0 42 36v24h150v-29q0 -88 -56 -117q-39 -20 -139 -20t-143 30q-52 37 -52 132zM191 388v-75h82v75q0 30 -41 30t-41 -30z" />
    <glyph glyph-name="f" unicode="f" horiz-adv-x="278" 
d="M10 398v112h42v102q0 55 44 89q40 31 97 31q54 0 80 -4v-104q-10 2 -14 2h-7q-52 0 -52 -39v-77h71v-112h-71v-398h-148v398h-42z" />
    <glyph glyph-name="g" unicode="g" 
d="M195 376v-244q0 -30 37 -30t37 30v244q0 30 -37 30t-37 -30zM47 121v263q0 134 108 134q82 0 123 -55h2v47h137v-555q0 -89 -59 -121q-41 -22 -141 -22q-154 0 -154 113v27h130v-11q0 -23 38 -23t38 34v91h-2q-35 -47 -101 -47q-119 0 -119 125z" />
    <glyph glyph-name="h" unicode="h" 
d="M47 0v724h148v-270h2q30 64 104 64q116 0 116 -117v-401h-148v365q0 35 -38 35q-36 0 -36 -35v-365h-148z" />
    <glyph glyph-name="i" unicode="i" horiz-adv-x="242" 
d="M47 0v510h148v-510h-148zM47 606v118h148v-118h-148z" />
    <glyph glyph-name="j" unicode="j" horiz-adv-x="242" 
d="M3 -183v113q44 0 44 61v519h148v-573q0 -125 -128 -125q-26 0 -64 5zM47 606v118h148v-118h-148z" />
    <glyph glyph-name="k" unicode="k" horiz-adv-x="426" 
d="M47 0v724h148v-401h2l67 187h146l-76 -224l100 -286h-158l-79 252h-2v-252h-148z" />
    <glyph glyph-name="l" unicode="l" horiz-adv-x="242" 
d="M47 0v724h148v-724h-148z" />
    <glyph glyph-name="m" unicode="m" horiz-adv-x="686" 
d="M47 0v510h148v-56h2q29 63 110 64q82 1 112 -64q30 64 109 64q111 0 111 -117v-401h-148v365q0 35 -38 35q-36 0 -36 -35v-365h-148v365q0 35 -38 35q-36 0 -36 -35v-365h-148z" />
    <glyph glyph-name="n" unicode="n" 
d="M47 0v510h148v-56h2q30 64 104 64q116 0 116 -117v-401h-148v365q0 35 -38 35q-36 0 -36 -35v-365h-148z" />
    <glyph glyph-name="o" unicode="o" 
d="M37 154v202q0 95 52 132q43 30 143 30t143 -30q52 -37 52 -132v-202q0 -95 -52 -132q-43 -30 -143 -30t-143 30q-52 37 -52 132zM191 369v-228q0 -22 9 -29.5t32 -7.5t32 7.5t9 29.5v228q0 22 -9 29.5t-32 7.5t-32 -7.5t-9 -29.5z" />
    <glyph glyph-name="p" unicode="p" 
d="M195 372v-234q0 -28 34 -28t34 28v234q0 28 -34 28t-34 -28zM47 -188v698h142v-53h2q19 36 42 48.5t65 12.5q69 0 96 -36q23 -31 23 -103v-284q0 -103 -111 -103q-72 0 -109 53h-2v-233h-148z" />
    <glyph glyph-name="q" unicode="q" 
d="M201 372v-234q0 -28 34 -28t34 28v234q0 28 -34 28t-34 -28zM47 95v284q0 72 23 103q27 36 96 36q42 0 64.5 -12.5t43.5 -48.5h2v53h141v-698h-148v233h-2q-37 -53 -109 -53q-111 0 -111 103z" />
    <glyph glyph-name="r" unicode="r" horiz-adv-x="389" 
d="M47 0v510h142v-51h2q15 35 39 48q21 11 62 11q44 0 64 -15q23 -18 23 -61v-138h-124v76q0 20 -30 20t-30 -27v-373h-148z" />
    <glyph glyph-name="s" unicode="s" horiz-adv-x="427" 
d="M38 113v45h136v-14q0 -25 5 -34q7 -12 30 -12q24 0 31 12q6 9 4 34q-2 37 -23 46q-6 3 -57 10q-74 11 -101.5 42t-27.5 106q0 108 36 140q31 28 138 30q78 2 114 -13q57 -23 57 -88v-59h-130v24q0 36 -33 36q-22 0 -29 -13q-5 -9 -5 -33q0 -30 19 -40q9 -5 48 -11
q86 -14 111 -37q29 -27 31 -110q2 -113 -41 -151q-35 -31 -134 -31q-90 0 -125 17q-54 26 -54 104z" />
    <glyph glyph-name="t" unicode="t" horiz-adv-x="315" 
d="M23 398v112h42v133h148v-133h86v-112h-86v-255q0 -39 38 -39q7 0 38 3v-111q-16 0 -47 -2t-47 -2q-130 0 -130 112v294h-42z" />
    <glyph glyph-name="u" unicode="u" 
d="M47 109v401h148v-365q0 -35 38 -35q36 0 36 35v365h148v-510h-148v56h-2q-30 -64 -104 -64q-116 0 -116 117z" />
    <glyph glyph-name="v" unicode="v" horiz-adv-x="408" 
d="M85 0l-75 510h148l45 -422h2l45 422h148l-75 -510h-238z" />
    <glyph glyph-name="w" unicode="w" horiz-adv-x="704" 
d="M90 0l-76 510h139l46 -416h2l46 416h210l46 -416h2l46 416h139l-76 -510h-220l-41 404h-2l-41 -404h-220z" />
    <glyph glyph-name="x" unicode="x" horiz-adv-x="444" 
d="M24 0l72 276l-60 234h145l40 -210h2l40 210h145l-64 -234l76 -276h-149l-48 223h-2l-48 -223h-149z" />
    <glyph glyph-name="y" unicode="y" horiz-adv-x="408" 
d="M81 0l-71 510h148l45 -422h2l45 422h148l-85 -570q-11 -73 -52 -102q-37 -26 -113 -26q-38 0 -66 14v100q32 -8 41 -8q29 0 44 17q6 7 9 29q0 3 5 36h-100z" />
    <glyph glyph-name="z" unicode="z" horiz-adv-x="353" 
d="M25 0v111l144 293h-135v106h287v-123l-138 -281h145v-106h-303z" />
    <glyph glyph-name="braceleft" unicode="{" horiz-adv-x="333" 
d="M-11 306v112q29 0 48.5 17t19.5 45v117q0 127 124 127h105v-118h-34q-41 0 -41 -50v-96q0 -81 -104 -97v-2q104 -16 104 -97v-96q0 -50 41 -50h34v-118h-105q-124 0 -124 127v117q0 29 -19.5 45.5t-48.5 16.5z" />
    <glyph glyph-name="bar" unicode="|" horiz-adv-x="222" 
d="M55 -8v740h112v-740h-112z" />
    <glyph glyph-name="braceright" unicode="}" horiz-adv-x="333" 
d="M344 418v-112q-28 0 -48 -17t-20 -45v-117q0 -127 -124 -127h-105v118h34q41 0 41 50v96q0 81 104 97v2q-104 16 -104 97v96q0 50 -41 50h-34v118h105q124 0 124 -127v-117q0 -28 20 -45t48 -17z" />
    <glyph glyph-name="asciitilde" unicode="~" horiz-adv-x="600" 
d="M105 160v0l-36 96q45 86 125 86q38 0 111 -32q80 -35 102 -35q41 0 88 71l36 -97q-29 -41 -50 -58q-34 -27 -75 -27q-35 0 -107 33t-110 33q-51 0 -84 -70z" />
    <glyph glyph-name="euro" horiz-adv-x="498" 
d="M522 633l-23 -156l-48 6q0 157 -94 157q-103 0 -161 -211h172l-21 -48h-164q-6 -24 -16 -73h147l-21 -47h-134q-6 -41 -6 -74q0 -56 21 -91q26 -43 78 -43q58 0 101 68q24 38 51 119l55 -10l-54 -188q-77 -53 -159 -53q-111 0 -166 84q-47 71 -47 188h-74l21 47h56
q3 25 12 73h-66l21 48h59q41 112 108 183q83 88 187 88q94 0 165 -67z" />
    <glyph glyph-name="exclamdown" unicode="&#xa1;" horiz-adv-x="278" 
d="M65 -180v502h148v-502h-148zM65 390v154h148v-154h-148z" />
    <glyph glyph-name="cent" unicode="&#xa2;" horiz-adv-x="500" 
d="M212 372v-156h2l80 192q-18 4 -40 4q-42 0 -42 -40zM64 166v180q0 95 43 135q40 37 137 37q55 0 90 -8l51 113h65l-58 -136q33 -25 33 -67v-86h-106l-98 -230q8 -6 30 -6q27 0 38.5 7.5t11.5 32.5v61h130v-70q0 -72 -27 -99q-37 -38 -147 -38q-52 0 -78 6l-52 -124h-66
l61 145q-58 35 -58 147z" />
    <glyph glyph-name="sterling" unicode="&#xa3;" horiz-adv-x="500" 
d="M35 263v118h66l-9 191q-4 86 43 125q43 35 133 35q97 0 143 -27q59 -35 59 -126v-61h-148v57q0 39 -35 39q-40 0 -41 -36q0 -2 17 -197h121v-118h-118q0 -79 -11 -133h217v-130h-437v124q44 2 57.5 19.5t13.5 62.5q0 37 -2 57h-69z" />
    <glyph glyph-name="currency" unicode="&#xa4;" horiz-adv-x="500" 
d="M114 362q0 -61 38 -101.5t98 -40.5t98 40.5t38 101.5t-38 101.5t-98 40.5t-98 -40.5t-38 -101.5zM-12 164l58 58q-44 61 -44 140t43 141l-57 57l64 64l58 -57q65 43 140 43q79 0 141 -43l57 57l64 -64l-58 -58q44 -64 44 -140q0 -77 -44 -140l58 -58l-64 -64l-58 58
q-61 -44 -140 -44q-77 0 -140 44l-58 -58z" />
    <glyph glyph-name="yen" unicode="&#xa5;" horiz-adv-x="500" 
d="M173 0v113h-140v94h140v27l-16 53h-124v94h94l-106 343h161l67 -326h2l67 326h161l-106 -343h94v-94h-124l-16 -53v-27h140v-94h-140v-113h-154z" />
    <glyph glyph-name="brokenbar" unicode="&#xa6;" horiz-adv-x="222" 
d="M55 -8v278h112v-278h-112zM55 454v278h112v-278h-112z" />
    <glyph glyph-name="section" unicode="&#xa7;" horiz-adv-x="538" 
d="M65 107v42h142v-11q0 -14 2 -21q6 -19 47 -19q27 0 36 4q17 7 17 29q0 29 -47 50q-9 4 -87 31q-125 43 -125 140q0 80 75 123q-44 36 -44 112q0 145 185 145q105 0 144 -24q52 -32 52 -128h-142v6q0 24 -8 32t-32 8q-45 0 -45 -40q0 -27 44 -45q6 -1 66 -19
q73 -21 105 -54q38 -39 38 -110q0 -87 -69 -115q44 -44 44 -114q0 -86 -61 -116q-42 -21 -140 -21q-85 0 -129 17q-68 26 -68 98zM174 394q0 -28 68 -52q84 -30 104 -46q18 7 18 33q0 25 -36 45q-19 10 -68 26q-46 13 -67 28q-19 -12 -19 -34z" />
    <glyph glyph-name="dieresis" unicode="&#xa8;" horiz-adv-x="242" 
d="M-43 606v118h130v-118h-130zM155 606v118h130v-118h-130z" />
    <glyph glyph-name="copyright" unicode="&#xa9;" horiz-adv-x="800" 
d="M482 305h84q-2 -71 -50.5 -113.5t-120.5 -42.5q-84 0 -133 68q-45 61 -45 148q0 92 46 151q50 65 140 65q73 0 116.5 -40t46.5 -112h-84q-10 64 -80 64q-91 0 -91 -126q0 -54 20 -88q24 -42 74 -42q67 0 77 68zM30 362q0 156 107 263t263 107t263 -107t107 -263
t-107 -263t-263 -107t-263 107t-107 263zM142 362q0 -119 69 -193q71 -77 189 -77t189 77q69 74 69 193t-70 194.5t-188 75.5t-188 -75.5t-70 -194.5z" />
    <glyph glyph-name="ordfeminine" unicode="&#xaa;" horiz-adv-x="289" 
d="M29 638v40q0 38 42 49q19 5 74 5q68 0 93 -11q39 -17 39 -76v-229h-102v26l-2 -2q-24 -30 -81 -30q-50 0 -68 32q-12 22 -12 78q0 49 16 72q19 27 67 27q50 0 76 -19v51q0 15 -25 15q-23 0 -23 -16v-12h-94zM124 527v-15q0 -26 23 -26q24 0 24 23v22q0 22 -24 22
q-23 0 -23 -26z" />
    <glyph glyph-name="guillemotleft" unicode="&#xab;" horiz-adv-x="537" 
d="M338 88l-88 178l88 176h152l-87 -177l88 -177h-153zM134 88l-88 177l88 177h153l-88 -177l88 -177h-153z" />
    <glyph glyph-name="logicalnot" unicode="&#xac;" horiz-adv-x="600" 
d="M47 309v112h506v-311h-112v199h-394z" />
    <glyph glyph-name="sfthyphen" unicode="&#xad;" horiz-adv-x="338" 
d="M8 174l33 122h246l-33 -122h-246z" />
    <glyph glyph-name="registered" unicode="&#xae;" horiz-adv-x="800" 
d="M30 362q0 156 107 263t263 107t263 -107t107 -263t-107 -263t-263 -107t-263 107t-107 263zM142 362q0 -119 69 -193q71 -77 189 -77t189 77q69 74 69 193t-70 194.5t-188 75.5t-188 -75.5t-70 -194.5zM253 160v404h149q162 0 162 -122q0 -99 -103 -108l95 -174h-94
l-88 169h-33v-169h-88zM341 498v-103h72q63 0 63 55q0 48 -78 48h-57z" />
    <glyph glyph-name="macron" unicode="&#xaf;" horiz-adv-x="242" 
d="M-45 648v76h332v-76h-332z" />
    <glyph glyph-name="macron" unicode="&#x2c9;" horiz-adv-x="242" 
d="M-45 648v76h332v-76h-332z" />
    <glyph glyph-name="degree" unicode="&#xb0;" horiz-adv-x="400" 
d="M57 589q0 60 41.5 101.5t101.5 41.5t101.5 -41.5t41.5 -101.5t-41.5 -101.5t-101.5 -41.5t-101.5 41.5t-41.5 101.5zM123 589q0 -32 22.5 -54.5t54.5 -22.5t54.5 22.5t22.5 54.5t-22.5 54.5t-54.5 22.5t-54.5 -22.5t-22.5 -54.5z" />
    <glyph glyph-name="plusminus" unicode="&#xb1;" horiz-adv-x="600" 
d="M47 269v112h197v125h112v-125h197v-112h-197v-125h-112v125h-197zM47 0v112h506v-112h-506z" />
    <glyph glyph-name="twosuperior" unicode="&#xb2;" horiz-adv-x="325" 
d="M21 293v90q0 52 28 82q23 24 76 46q36 15 43 22q12 12 12 40v35q0 42 -20 42q-22 0 -22 -19v-65h-112v71q0 61 43 82q27 13 98 13q95 0 119 -29q18 -22 18 -110q0 -69 -17.5 -92.5t-83.5 -49.5q-37 -14 -49 -24q-21 -17 -21 -46v-6h169v-82h-281z" />
    <glyph glyph-name="threesuperior" unicode="&#xb3;" horiz-adv-x="325" 
d="M97 474v82h29q38 0 47 12q7 9 7 49q0 20 -4 26.5t-22 6.5q-26 0 -26 -21v-27h-112v46q0 84 136 84q77 0 104 -13q42 -20 42 -86q0 -55 -6 -72q-11 -31 -56 -39v-4q47 -6 60 -37q8 -19 8 -75q0 -78 -39 -102q-30 -19 -116 -19q-68 0 -94 12q-41 19 -41 76v58h112v-35
q0 -29 29 -29q24 0 29 18q2 7 2 39q0 33 -5 40q-8 10 -38 10h-46z" />
    <glyph glyph-name="acute" unicode="&#xb4;" horiz-adv-x="242" 
d="M39 576l92 148h155l-148 -148h-99z" />
    <glyph glyph-name="mu" unicode="&#xb5;" 
d="M47 -188v698h148v-365q0 -35 38 -35q36 0 36 35v365h148v-510h-148v56h-2q-13 -56 -46 -56q-19 0 -24 18h-2v-206h-148z" />
    <glyph glyph-name="mu" unicode="&#x3bc;" 
d="M47 -188v698h148v-365q0 -35 38 -35q36 0 36 35v365h148v-510h-148v56h-2q-13 -56 -46 -56q-19 0 -24 18h-2v-206h-148z" />
    <glyph glyph-name="paragraph" unicode="&#xb6;" horiz-adv-x="620" 
d="M218 0v416q-185 2 -185 152q0 156 198 156h299v-724h-112v636h-88v-636h-112z" />
    <glyph glyph-name="ch270" unicode="&#xb7;" horiz-adv-x="249" 
d="M38 348q0 34 23 57t57 23t57.5 -23t23.5 -57t-23.5 -57.5t-57.5 -23.5t-57 23.5t-23 57.5z" />
    <glyph glyph-name="ch270" unicode="&#x2219;" horiz-adv-x="249" 
d="M38 348q0 34 23 57t57 23t57.5 -23t23.5 -57t-23.5 -57.5t-57.5 -23.5t-57 23.5t-23 57.5z" />
    <glyph glyph-name="cedilla" unicode="&#xb8;" horiz-adv-x="242" 
d="M-2 -203l17 39q51 -16 84 -16q45 0 45 39q0 35 -41 35q-23 0 -43 -8l-21 24l59 90h54l-43 -61l2 -2q12 6 31 6q38 0 64 -20t26 -57q0 -48 -42 -73q-34 -21 -85 -21q-34 0 -107 25z" />
    <glyph glyph-name="onesuperior" unicode="&#xb9;" horiz-adv-x="325" 
d="M4 604l100 120h150v-431h-124v349h-2l-60 -90z" />
    <glyph glyph-name="ordmasculine" unicode="&#xba;" horiz-adv-x="302" 
d="M16 507v128q0 61 39 82q28 15 96 15q67 0 95 -15q40 -21 40 -82v-128q0 -61 -40 -82q-28 -15 -95 -15q-68 0 -96 15q-39 21 -39 82zM128 633v-124q0 -23 23 -23t23 23v124q0 23 -23 23t-23 -23z" />
    <glyph glyph-name="guillemotright" unicode="&#xbb;" horiz-adv-x="537" 
d="M46 88l88 177l-87 177h152l88 -176l-88 -178h-153zM250 88l88 177l-88 177h153l88 -177l-88 -177h-153z" />
    <glyph glyph-name="onequarter" unicode="&#xbc;" horiz-adv-x="750" 
d="M431 82v108l102 241h179v-267h29v-82h-29v-82h-112v82h-169zM600 164v207h-2l-76 -207h78zM126 -8l395 740h104l-395 -740h-104zM4 604l100 120h150v-431h-124v349h-2l-60 -90z" />
    <glyph glyph-name="onehalf" unicode="&#xbd;" horiz-adv-x="750" 
d="M126 -8l395 740h104l-395 -740h-104zM4 604l100 120h150v-431h-124v349h-2l-60 -90zM458 0v90q0 52 28 82q23 24 76 46q36 15 43 22q12 12 12 40v35q0 42 -20 42q-22 0 -22 -19v-64h-112v70q0 61 43 82q27 13 98 13q95 0 119 -29q18 -22 18 -110q0 -69 -17.5 -92.5
t-83.5 -49.5q-37 -14 -49 -24q-21 -17 -21 -46v-6h169v-82h-281z" />
    <glyph glyph-name="threequarters" unicode="&#xbe;" horiz-adv-x="750" 
d="M87 474v82h29q38 0 47 12q7 9 7 49q0 20 -4 26.5t-22 6.5q-26 0 -26 -21v-27h-112v46q0 84 136 84q77 0 104 -13q42 -20 42 -86q0 -55 -6 -72q-11 -31 -56 -39v-4q47 -6 60 -37q8 -19 8 -75q0 -78 -39 -102q-30 -19 -116 -19q-68 0 -94 12q-41 19 -41 76v58h112v-35
q0 -29 29 -29q24 0 29 18q2 7 2 39q0 33 -5 40q-8 10 -38 10h-46zM431 82v108l102 241h179v-267h29v-82h-29v-82h-112v82h-169zM126 -8l395 740h104l-395 -740h-104zM600 164v207h-2l-76 -207h78z" />
    <glyph glyph-name="questiondown" unicode="&#xbf;" horiz-adv-x="426" 
d="M156 271v52h154v-80q0 -49 -18 -73q-13 -18 -60 -48q-39 -25 -47 -49q-6 -18 -6 -71q0 -42 3 -50q8 -22 40 -22q43 0 43 35v75h154v-61q0 -99 -42 -135q-38 -32 -139 -32q-133 0 -174 36q-45 40 -45 171q0 89 16 123q12 25 45 46q49 31 55 36q21 19 21 47zM156 390v154
h154v-154h-154z" />
    <glyph glyph-name="Agrave" unicode="&#xc0;" horiz-adv-x="520" 
d="M291 800h-59l-178 143h155zM504 0h-169l-21 174h-108l-21 -174h-169l109 724h270zM300 298l-39 326h-2l-39 -326h80z" />
    <glyph glyph-name="Aacute" unicode="&#xc1;" horiz-adv-x="520" 
d="M300 298l-39 326h-2l-39 -326h80zM16 0l109 724h270l109 -724h-169l-21 174h-108l-21 -174h-169zM230 800l82 143h155l-178 -143h-59z" />
    <glyph glyph-name="Acircumflex" unicode="&#xc2;" horiz-adv-x="520" 
d="M300 298l-39 326h-2l-39 -326h80zM16 0l109 724h270l109 -724h-169l-21 174h-108l-21 -174h-169zM101 760l113 135h92l113 -135h-91l-68 64l-68 -64h-91z" />
    <glyph glyph-name="Atilde" unicode="&#xc3;" horiz-adv-x="520" 
d="M300 298l-39 326h-2l-39 -326h80zM16 0l109 724h270l109 -724h-169l-21 174h-108l-21 -174h-169zM147 800h-52q52 99 127 99q18 0 53.5 -14.5t48.5 -14.5q35 0 48 33h53q-44 -97 -120 -98q-18 0 -56.5 13.5t-54.5 13.5q-33 0 -47 -32z" />
    <glyph glyph-name="Adieresis" unicode="&#xc4;" horiz-adv-x="520" 
d="M300 298l-39 326h-2l-39 -326h80zM16 0l109 724h270l109 -724h-169l-21 174h-108l-21 -174h-169zM96 765v118h130v-118h-130zM294 765v118h130v-118h-130z" />
    <glyph glyph-name="Aring" unicode="&#xc5;" horiz-adv-x="520" 
d="M300 298l-39 326h-2l-39 -326h80zM16 0l109 724h270l109 -724h-169l-21 174h-108l-21 -174h-169zM153 857q0 48 29.5 77.5t77.5 29.5t77.5 -29.5t29.5 -77.5q0 -47 -30 -77t-77 -30t-77 30t-30 77zM213 857q0 -19 14 -33t33 -14q20 0 33.5 13.5t13.5 33.5t-13.5 33.5
t-33.5 13.5t-33.5 -13.5t-13.5 -33.5z" />
    <glyph glyph-name="AE" unicode="&#xc6;" horiz-adv-x="741" 
d="M367 311v295h-25l-89 -295h114zM-9 0l228 724h470v-130h-156v-159h142v-124h-142v-181h168v-130h-334v187h-151l-57 -187h-168z" />
    <glyph glyph-name="Ccedilla" unicode="&#xc7;" horiz-adv-x="500" 
d="M45 147v409q0 90 39 133t128 43h62q89 0 129 -19q60 -28 60 -105v-132h-160v95q0 31 -42 31q-44 0 -44 -31v-418q0 -31 43 -31t43 31v114h160v-107q0 -97 -47 -135q-42 -33 -142 -33h-62q-167 0 -167 155zM127 -203l17 39q51 -16 84 -16q45 0 45 39q0 35 -41 35
q-23 0 -43 -8l-21 24l59 90h54l-43 -61l2 -2q12 6 31 6q38 0 64 -20t26 -57q0 -48 -42 -73q-34 -21 -85 -21q-34 0 -107 25z" />
    <glyph glyph-name="Egrave" unicode="&#xc8;" horiz-adv-x="426" 
d="M55 0v724h319v-130h-153v-159h142v-124h-142v-181h165v-130h-331zM244 800h-59l-178 143h155z" />
    <glyph glyph-name="Eacute" unicode="&#xc9;" horiz-adv-x="426" 
d="M55 0v724h319v-130h-153v-159h142v-124h-142v-181h165v-130h-331zM184 800l82 143h155l-178 -143h-59z" />
    <glyph glyph-name="Ecircumflex" unicode="&#xca;" horiz-adv-x="426" 
d="M55 0v724h319v-130h-153v-159h142v-124h-142v-181h165v-130h-331zM55 759l113 135h92l113 -135h-91l-68 64l-68 -64h-91z" />
    <glyph glyph-name="Edieresis" unicode="&#xcb;" horiz-adv-x="426" 
d="M55 0v724h319v-130h-153v-159h142v-124h-142v-181h165v-130h-331zM49 765v118h130v-118h-130zM247 765v118h130v-118h-130z" />
    <glyph glyph-name="Igrave" unicode="&#xcc;" horiz-adv-x="296" 
d="M65 0v724h166v-724h-166zM177 800h-59l-178 143h155z" />
    <glyph glyph-name="Iacute" unicode="&#xcd;" horiz-adv-x="296" 
d="M65 0v724h166v-724h-166zM117 800l82 143h155l-178 -143h-59z" />
    <glyph glyph-name="Icircumflex" unicode="&#xce;" horiz-adv-x="296" 
d="M65 0v724h166v-724h-166zM-29 760l115 148h124l115 -148h-113l-64 82l-64 -82h-113z" />
    <glyph glyph-name="Idieresis" unicode="&#xcf;" horiz-adv-x="296" 
d="M65 0v724h166v-724h-166zM-16 765v118h130v-118h-130zM182 765v118h130v-118h-130z" />
    <glyph glyph-name="Eth" unicode="&#xd0;" horiz-adv-x="520" 
d="M8 311v130h47v283h216q121 0 160 -47q44 -53 44 -225v-181q0 -172 -44 -225q-38 -46 -160 -46h-216v311h-47zM221 600v-159h47v-130h-47v-181h44q30 0 39 22q5 12 5 48v330q0 36 -5 48q-9 22 -39 22h-44z" />
    <glyph glyph-name="Ntilde" unicode="&#xd1;" horiz-adv-x="630" 
d="M327 0l-121 564h-2l10 -564h-153v724h242l122 -564l2 2l-12 562h154v-724h-242zM196 778v0h-64q25 125 117 125q24 0 72 -19t65 -19q40 0 47 43h65q-7 -51 -31 -84q-29 -40 -77 -40q-26 0 -76.5 17.5t-73.5 17.5q-39 0 -44 -41z" />
    <glyph glyph-name="Ograve" unicode="&#xd2;" horiz-adv-x="520" 
d="M303 150v424q0 34 -43 34t-43 -34v-424q0 -34 43 -34t43 34zM45 141v442q0 91 66 125q47 24 149 24t149 -24q66 -34 66 -125v-442q0 -91 -66 -125q-47 -24 -149 -24t-149 24q-66 34 -66 125zM290 800h-59l-178 143h155z" />
    <glyph glyph-name="Oacute" unicode="&#xd3;" horiz-adv-x="520" 
d="M303 150v424q0 34 -43 34t-43 -34v-424q0 -34 43 -34t43 34zM45 141v442q0 91 66 125q47 24 149 24t149 -24q66 -34 66 -125v-442q0 -91 -66 -125q-47 -24 -149 -24t-149 24q-66 34 -66 125zM230 800l82 143h155l-178 -143h-59z" />
    <glyph glyph-name="Ocircumflex" unicode="&#xd4;" horiz-adv-x="520" 
d="M303 150v424q0 34 -43 34t-43 -34v-424q0 -34 43 -34t43 34zM45 141v442q0 91 66 125q47 24 149 24t149 -24q66 -34 66 -125v-442q0 -91 -66 -125q-47 -24 -149 -24t-149 24q-66 34 -66 125zM101 760l113 135h92l113 -135h-91l-68 64l-68 -64h-91z" />
    <glyph glyph-name="Otilde" unicode="&#xd5;" horiz-adv-x="520" 
d="M303 150v424q0 34 -43 34t-43 -34v-424q0 -34 43 -34t43 34zM45 141v442q0 91 66 125q47 24 149 24t149 -24q66 -34 66 -125v-442q0 -91 -66 -125q-47 -24 -149 -24t-149 24q-66 34 -66 125zM147 800h-52q52 99 127 99q18 0 53.5 -14.5t48.5 -14.5q35 0 48 33h53
q-44 -97 -120 -98q-18 0 -56.5 13.5t-54.5 13.5q-33 0 -47 -32z" />
    <glyph glyph-name="Odieresis" unicode="&#xd6;" horiz-adv-x="520" 
d="M303 150v424q0 34 -43 34t-43 -34v-424q0 -34 43 -34t43 34zM45 141v442q0 91 66 125q47 24 149 24t149 -24q66 -34 66 -125v-442q0 -91 -66 -125q-47 -24 -149 -24t-149 24q-66 34 -66 125zM96 765v118h130v-118h-130zM294 765v118h130v-118h-130z" />
    <glyph glyph-name="multiply" unicode="&#xd7;" horiz-adv-x="600" 
d="M223 253l-158 158l77 77l158 -158l158 158l77 -77l-159 -158l159 -158l-77 -77l-158 159l-158 -159l-77 77z" />
    <glyph glyph-name="Oslash" unicode="&#xd8;" horiz-adv-x="520" 
d="M45 141v442q0 91 66 125q47 24 149 24q91 0 136 -19l41 77l78 -38l-53 -99q13 -26 13 -70v-442q0 -91 -66 -125q-47 -24 -149 -24q-93 0 -139 21l-41 -79l-75 41l52 100q-12 27 -12 66zM217 204v-54q0 -34 43 -34t43 34v216h-2zM217 574v-212h2l84 162v50q0 34 -43 34
t-43 -34z" />
    <glyph glyph-name="Ugrave" unicode="&#xd9;" horiz-adv-x="520" 
d="M470 724v-551q0 -112 -55 -151q-43 -30 -155 -30t-155 30q-55 39 -55 151v551h166v-556q0 -46 44 -46t44 46v556h166zM290 780h-59l-178 143h155z" />
    <glyph glyph-name="Uacute" unicode="&#xda;" horiz-adv-x="520" 
d="M470 724v-551q0 -112 -55 -151q-43 -30 -155 -30t-155 30q-55 39 -55 151v551h166v-556q0 -46 44 -46t44 46v556h166zM230 780l82 143h155l-178 -143h-59z" />
    <glyph glyph-name="Ucircumflex" unicode="&#xdb;" horiz-adv-x="520" 
d="M470 724v-551q0 -112 -55 -151q-43 -30 -155 -30t-155 30q-55 39 -55 151v551h166v-556q0 -46 44 -46t44 46v556h166zM83 760l115 148h124l115 -148h-113l-64 82l-64 -82h-113z" />
    <glyph glyph-name="Udieresis" unicode="&#xdc;" horiz-adv-x="520" 
d="M470 724v-551q0 -112 -55 -151q-43 -30 -155 -30t-155 30q-55 39 -55 151v551h166v-556q0 -46 44 -46t44 46v556h166zM96 765v118h130v-118h-130zM294 765v118h130v-118h-130z" />
    <glyph glyph-name="Yacute" unicode="&#xdd;" 
d="M152 0v234l-152 490h164l67 -326h2l67 326h164l-152 -490v-234h-160zM200 780l82 143h155l-178 -143h-59z" />
    <glyph glyph-name="Thorn" unicode="&#xde;" horiz-adv-x="500" 
d="M55 0v724h166v-80h73q96 0 140.5 -40.5t44.5 -135.5v-126q0 -119 -41 -166q-43 -50 -161 -50h-56v-126h-166zM221 514v-258h49q37 0 37 53v174q0 31 -38 31h-48z" />
    <glyph glyph-name="germandbls" unicode="&#xdf;" horiz-adv-x="481" 
d="M47 0v569q0 89 50 128q45 35 136 35q99 0 143 -39q46 -42 46 -139q0 -68 -22 -101q-26 -39 -90 -49v-2q72 -11 103 -46.5t31 -107.5v-85q0 -86 -35 -127q-38 -44 -122 -44q-35 0 -60 16v114q18 -6 29 -6q27 0 35 19q5 12 5 43v66q0 44 -12 61q-15 20 -56 26v124
q29 4 40.5 14t11.5 38v64q0 37 -15 45q-8 4 -28 4q-42 0 -42 -35v-585h-148z" />
    <glyph glyph-name="agrave" unicode="&#xe0;" horiz-adv-x="444" 
d="M45 364v64q0 61 56 80q30 10 107 10q106 0 144 -25q45 -30 45 -119v-374h-142v43h-2q-23 -31 -45 -41t-62 -10q-75 0 -103 48q-20 35 -20 117q0 78 24 113q30 43 104 43q58 0 98 -33v113q0 25 -38 25q-36 0 -36 -26v-28h-130zM177 176v-29q0 -43 36 -43t36 37v41
q0 37 -36 37t-36 -43zM235 600h-53l-140 129h129z" />
    <glyph glyph-name="aacute" unicode="&#xe1;" horiz-adv-x="444" 
d="M45 364v64q0 61 56 80q30 10 107 10q106 0 144 -25q45 -30 45 -119v-374h-142v43h-2q-23 -31 -45 -41t-62 -10q-75 0 -103 48q-20 35 -20 117q0 78 24 113q30 43 104 43q58 0 98 -33v113q0 25 -38 25q-36 0 -36 -26v-28h-130zM177 176v-29q0 -43 36 -43t36 37v41
q0 37 -36 37t-36 -43zM182 600l74 129h139l-160 -129h-53z" />
    <glyph glyph-name="acircumflex" unicode="&#xe2;" horiz-adv-x="444" 
d="M45 364v64q0 61 56 80q30 10 107 10q106 0 144 -25q45 -30 45 -119v-374h-142v43h-2q-23 -31 -45 -41t-62 -10q-75 0 -103 48q-20 35 -20 117q0 78 24 113q30 43 104 43q58 0 98 -33v113q0 25 -38 25q-36 0 -36 -26v-28h-130zM177 176v-29q0 -43 36 -43t36 37v41
q0 37 -36 37t-36 -43zM64 551l102 121h83l101 -121h-82l-61 57l-61 -57h-82z" />
    <glyph glyph-name="atilde" unicode="&#xe3;" horiz-adv-x="444" 
d="M45 364v64q0 61 56 80q30 10 107 10q106 0 144 -25q45 -30 45 -119v-374h-142v43h-2q-23 -31 -45 -41t-62 -10q-75 0 -103 48q-20 35 -20 117q0 78 24 113q30 43 104 43q58 0 98 -33v113q0 25 -38 25q-36 0 -36 -26v-28h-130zM177 176v-29q0 -43 36 -43t36 37v41
q0 37 -36 37t-36 -43zM106 600h-46q45 89 114 89q16 0 48 -13t44 -13q31 0 43 30h47q-40 -89 -108 -89q-16 0 -50.5 12.5t-48.5 12.5q-30 0 -43 -29z" />
    <glyph glyph-name="adieresis" unicode="&#xe4;" horiz-adv-x="444" 
d="M45 364v64q0 61 56 80q30 10 107 10q106 0 144 -25q45 -30 45 -119v-374h-142v43h-2q-23 -31 -44.5 -41t-62.5 -10q-75 0 -103 48q-20 35 -20 117q0 78 24 113q30 43 104 43q58 0 98 -33v113q0 25 -38 25q-36 0 -36 -26v-28h-130zM177 176v-29q0 -43 36 -43t36 37v41
q0 37 -36 37t-36 -43zM58 581v118h130v-118h-130zM256 581v118h130v-118h-130z" />
    <glyph glyph-name="aring" unicode="&#xe5;" horiz-adv-x="444" 
d="M45 364v64q0 61 56 80q30 10 107 10q106 0 144 -25q45 -30 45 -119v-374h-142v43h-2q-23 -31 -44.5 -41t-62.5 -10q-75 0 -103 48q-20 35 -20 117q0 78 24 113q30 43 104 43q58 0 98 -33v113q0 25 -38 25q-36 0 -36 -26v-28h-130zM177 176v-29q0 -43 36 -43t36 37v41
q0 37 -36 37t-36 -43zM115 683q0 48 29.5 77.5t77.5 29.5t77.5 -29.5t29.5 -77.5q0 -47 -30 -77t-77 -30t-77 30t-30 77zM175 683q0 -19 14 -33t33 -14q20 0 33.5 13.5t13.5 33.5t-13.5 33.5t-33.5 13.5t-33.5 -13.5t-13.5 -33.5z" />
    <glyph glyph-name="ae" unicode="&#xe6;" horiz-adv-x="667" 
d="M45 364v64q0 61 56 80q30 10 107 10q104 0 121 -38q31 38 106 38q92 0 136 -24q59 -33 59 -117v-158h-233v-86q0 -35 43 -35q40 0 40 36v24h150v-29q0 -88 -56 -117q-39 -20 -139 -20q-54 0 -79 7q-44 12 -56 49h-2q-13 -36 -49 -48q-24 -8 -73 -8q-88 0 -122 39
q-31 36 -31 126q0 78 24 113q30 43 104 43q58 0 98 -33v113q0 25 -38 25q-36 0 -36 -26v-28h-130zM177 176v-29q0 -43 36 -43t36 37v41q0 37 -36 37t-36 -43zM397 382v-69h79v69q0 30 -40 30q-39 0 -39 -30z" />
    <glyph glyph-name="ccedilla" unicode="&#xe7;" horiz-adv-x="444" 
d="M37 154v202q0 98 55 134q43 28 147 28q162 0 162 -98v-87h-130v26q0 47 -40 47t-40 -47v-208q0 -47 40 -47t40 47v48h136v-45q0 -93 -27 -123q-35 -39 -147 -39q-101 0 -144 29q-52 36 -52 133zM99 -203l17 39q51 -16 84 -16q45 0 45 39q0 35 -41 35q-23 0 -43 -8l-21 24
l59 90h54l-43 -61l2 -2q12 6 31 6q38 0 64 -20t26 -57q0 -48 -42 -73q-34 -21 -85 -21q-34 0 -107 25z" />
    <glyph glyph-name="egrave" unicode="&#xe8;" 
d="M37 154v202q0 95 52 132q43 30 143 30q92 0 136 -24q59 -33 59 -117v-158h-236v-86q0 -23 11 -30q8 -5 33 -5q42 0 42 36v24h150v-29q0 -88 -56 -117q-39 -20 -139 -20t-143 30q-52 37 -52 132zM191 388v-75h82v75q0 30 -41 30t-41 -30zM258 600h-53l-140 129h129z" />
    <glyph glyph-name="eacute" unicode="&#xe9;" 
d="M37 154v202q0 95 52 132q43 30 143 30q92 0 136 -24q59 -33 59 -117v-158h-236v-86q0 -23 11 -30q8 -5 33 -5q42 0 42 36v24h150v-29q0 -88 -56 -117q-39 -20 -139 -20t-143 30q-52 37 -52 132zM191 388v-75h82v75q0 30 -41 30t-41 -30zM205 600l74 129h139l-160 -129
h-53z" />
    <glyph glyph-name="ecircumflex" unicode="&#xea;" 
d="M37 154v202q0 95 52 132q43 30 143 30q92 0 136 -24q59 -33 59 -117v-158h-236v-86q0 -23 11 -30q8 -5 33 -5q42 0 42 36v24h150v-29q0 -88 -56 -117q-39 -20 -139 -20t-143 30q-52 37 -52 132zM191 388v-75h82v75q0 30 -41 30t-41 -30zM88 552l102 121h83l101 -121h-82
l-61 57l-61 -57h-82z" />
    <glyph glyph-name="edieresis" unicode="&#xeb;" 
d="M37 154v202q0 95 52 132q43 30 143 30q92 0 136 -24q59 -33 59 -117v-158h-236v-86q0 -23 11 -30q8 -5 33 -5q42 0 42 36v24h150v-29q0 -88 -56 -117q-39 -20 -139 -20t-143 30q-52 37 -52 132zM191 388v-75h82v75q0 30 -41 30t-41 -30zM68 581v118h130v-118h-130z
M266 581v118h130v-118h-130z" />
    <glyph glyph-name="igrave" unicode="&#xec;" horiz-adv-x="242" 
d="M47 0v510h148v-510h-148zM148 590h-53l-140 129h129z" />
    <glyph glyph-name="iacute" unicode="&#xed;" horiz-adv-x="242" 
d="M47 0v510h148v-510h-148zM94 590l74 129h139l-160 -129h-53z" />
    <glyph glyph-name="icircumflex" unicode="&#xee;" horiz-adv-x="242" 
d="M47 0v510h148v-510h-148zM-56 576l115 148h124l115 -148h-113l-64 82l-64 -82h-113z" />
    <glyph glyph-name="idieresis" unicode="&#xef;" horiz-adv-x="242" 
d="M47 0v510h148v-510h-148zM-43 581v118h130v-118h-130zM155 581v118h130v-118h-130z" />
    <glyph glyph-name="eth" unicode="&#xf0;" 
d="M37 154v202q0 146 142 146q72 0 99 -40l2 -1q-6 83 -50 120l-108 -51l-33 51l82 39q-53 20 -94 23l65 100q103 0 170 -56l109 51l33 -51l-96 -47q44 -46 59 -117q10 -47 10 -132v-237q0 -95 -52 -132q-43 -30 -143 -30t-143 30q-52 37 -52 132zM191 353v-212
q0 -22 9 -29.5t32 -7.5t32 7.5t9 29.5v212q0 22 -9 29.5t-32 7.5t-32 -7.5t-9 -29.5z" />
    <glyph glyph-name="ntilde" unicode="&#xf1;" 
d="M47 0v510h148v-56h2q30 64 104 64q116 0 116 -117v-401h-148v365q0 35 -38 35q-36 0 -36 -35v-365h-148zM113 594v0h-64q25 125 117 125q24 0 72 -19t65 -19q40 0 47 43h65q-7 -51 -31 -84q-29 -40 -77 -40q-26 0 -76.5 17.5t-73.5 17.5q-39 0 -44 -41z" />
    <glyph glyph-name="ograve" unicode="&#xf2;" 
d="M37 154v202q0 95 52 132q43 30 143 30t143 -30q52 -37 52 -132v-202q0 -95 -52 -132q-43 -30 -143 -30t-143 30q-52 37 -52 132zM191 369v-228q0 -22 9 -29.5t32 -7.5t32 7.5t9 29.5v228q0 22 -9 29.5t-32 7.5t-32 -7.5t-9 -29.5zM259 600h-53l-140 129h129z" />
    <glyph glyph-name="oacute" unicode="&#xf3;" 
d="M37 154v202q0 95 52 132q43 30 143 30t143 -30q52 -37 52 -132v-202q0 -95 -52 -132q-43 -30 -143 -30t-143 30q-52 37 -52 132zM191 369v-228q0 -22 9 -29.5t32 -7.5t32 7.5t9 29.5v228q0 22 -9 29.5t-32 7.5t-32 -7.5t-9 -29.5zM206 600l74 129h139l-160 -129h-53z" />
    <glyph glyph-name="ocircumflex" unicode="&#xf4;" 
d="M37 154v202q0 95 52 132q43 30 143 30t143 -30q52 -37 52 -132v-202q0 -95 -52 -132q-43 -30 -143 -30t-143 30q-52 37 -52 132zM191 369v-228q0 -22 9 -29.5t32 -7.5t32 7.5t9 29.5v228q0 22 -9 29.5t-32 7.5t-32 -7.5t-9 -29.5zM89 552l102 121h83l101 -121h-82l-61 57
l-61 -57h-82z" />
    <glyph glyph-name="otilde" unicode="&#xf5;" 
d="M37 154v202q0 95 52 132q43 30 143 30t143 -30q52 -37 52 -132v-202q0 -95 -52 -132q-43 -30 -143 -30t-143 30q-52 37 -52 132zM191 369v-228q0 -22 9 -29.5t32 -7.5t32 7.5t9 29.5v228q0 22 -9 29.5t-32 7.5t-32 -7.5t-9 -29.5zM130 600h-46q45 89 114 89q16 0 48 -13
t44 -13q31 0 43 30h47q-40 -89 -108 -89q-16 0 -50.5 12.5t-48.5 12.5q-30 0 -43 -29z" />
    <glyph glyph-name="odieresis" unicode="&#xf6;" 
d="M37 154v202q0 95 52 132q43 30 143 30t143 -30q52 -37 52 -132v-202q0 -95 -52 -132q-43 -30 -143 -30t-143 30q-52 37 -52 132zM191 369v-228q0 -22 9 -29.5t32 -7.5t32 7.5t9 29.5v228q0 22 -9 29.5t-32 7.5t-32 -7.5t-9 -29.5zM68 581v118h130v-118h-130zM266 581v118
h130v-118h-130z" />
    <glyph glyph-name="divide" unicode="&#xf7;" horiz-adv-x="600" 
d="M47 197v112h506v-112h-506zM212 460q0 37 26 63t63 26t63 -26t26 -63t-26 -63t-63 -26t-63 26t-26 63zM212 46q0 37 26 63t63 26t63 -26t26 -63t-26 -63t-63 -26t-63 26t-26 63z" />
    <glyph glyph-name="oslash" unicode="&#xf8;" 
d="M191 369v-121h2l80 124q-1 34 -41 34q-23 0 -32 -7.5t-9 -29.5zM273 141v115h-2l-79 -123q2 -29 40 -29q23 0 32 7.5t9 29.5zM37 154v202q0 95 52 132q43 30 143 30q78 0 118 -15l44 71l66 -44l-52 -78q19 -35 19 -96v-202q0 -95 -52 -132q-43 -30 -143 -30
q-79 0 -115 15l-47 -71l-66 44l53 77q-20 33 -20 97z" />
    <glyph glyph-name="ugrave" unicode="&#xf9;" 
d="M47 109v401h148v-365q0 -35 38 -35q36 0 36 35v365h148v-510h-148v56h-2q-30 -64 -104 -64q-116 0 -116 117zM258 576h-53l-140 129h129z" />
    <glyph glyph-name="uacute" unicode="&#xfa;" 
d="M47 109v401h148v-365q0 -35 38 -35q36 0 36 35v365h148v-510h-148v56h-2q-30 -64 -104 -64q-116 0 -116 117zM206 576l74 129h139l-160 -129h-53z" />
    <glyph glyph-name="ucircumflex" unicode="&#xfb;" 
d="M47 109v401h148v-365q0 -35 38 -35q36 0 36 35v365h148v-510h-148v56h-2q-30 -64 -104 -64q-116 0 -116 117zM55 576l115 148h124l115 -148h-113l-64 82l-64 -82h-113z" />
    <glyph glyph-name="udieresis" unicode="&#xfc;" 
d="M47 109v401h148v-365q0 -35 38 -35q36 0 36 35v365h148v-510h-148v56h-2q-30 -64 -104 -64q-116 0 -116 117zM68 581v118h130v-118h-130zM266 581v118h130v-118h-130z" />
    <glyph glyph-name="yacute" unicode="&#xfd;" horiz-adv-x="408" 
d="M81 0l-71 510h148l45 -422h2l45 422h148l-85 -570q-11 -73 -52 -102q-37 -26 -113 -26q-38 0 -66 14v100q32 -8 41 -8q29 0 44 17q6 7 9 29q0 3 5 36h-100zM177 566l74 129h139l-160 -129h-53z" />
    <glyph glyph-name="thorn" unicode="&#xfe;" 
d="M195 372v-234q0 -28 35 -28q33 0 33 28v234q0 28 -34 28t-34 -28zM47 -188v912h148v-267h2q16 37 39 50q20 11 62 11q69 0 96 -36q23 -31 23 -103v-284q0 -103 -111 -103q-72 0 -109 53h-2v-233h-148z" />
    <glyph glyph-name="ydieresis" unicode="&#xff;" horiz-adv-x="408" 
d="M81 0l-71 510h148l45 -422h2l45 422h148l-85 -570q-11 -73 -52 -102q-37 -26 -113 -26q-38 0 -66 14v100q32 -8 41 -8q29 0 44 17q6 7 9 29q0 3 5 36h-100zM40 581v118h130v-118h-130zM238 581v118h130v-118h-130z" />
    <glyph glyph-name="glyph271" unicode="&#x102;" horiz-adv-x="520" 
d="M300 298l-39 326h-2l-39 -326h80zM16 0l109 724h270l109 -724h-169l-21 174h-108l-21 -174h-169zM111 910h57q7 -37 32 -51q20 -11 61 -11t61 11q25 14 32 51h57q-17 -130 -150 -130t-150 130z" />
    <glyph glyph-name="glyph272" unicode="&#x103;" horiz-adv-x="444" 
d="M45 364v64q0 61 56 80q30 10 107 10q106 0 144 -25q45 -30 45 -119v-374h-142v43h-2q-23 -31 -45 -41t-62 -10q-75 0 -103 48q-20 35 -20 117q0 78 24 113q30 43 104 43q58 0 98 -33v113q0 25 -38 25q-36 0 -36 -26v-28h-130zM177 176v-29q0 -43 36 -43t36 37v41
q0 37 -36 37t-36 -43zM72 684h52q12 -55 83 -55q72 0 84 55h51q-15 -117 -135 -117t-135 117z" />
    <glyph glyph-name="Cacute" unicode="&#x106;" horiz-adv-x="711" 
d="M45 147v409q0 90 39 133t128 43h62q89 0 129 -19q60 -28 60 -105v-132h-160v95q0 31 -42 31q-44 0 -44 -31v-418q0 -31 43 -31t43 31v114h160v-107q0 -97 -47 -135q-42 -33 -142 -33h-62q-167 0 -167 155zM216 831l92 148h155l-148 -148h-99z" />
    <glyph glyph-name="cacute" unicode="&#x107;" horiz-adv-x="441" 
d="M37 154v202q0 98 55 134q43 28 147 28q162 0 162 -98v-87h-130v26q0 47 -40 47t-40 -47v-208q0 -47 40 -47t40 47v48h136v-45q0 -93 -27 -123q-35 -39 -147 -39q-101 0 -144 29q-52 36 -52 133zM17 576l92 148h155l-148 -148h-99z" />
    <glyph glyph-name="Ccaron" unicode="&#x10c;" horiz-adv-x="711" 
d="M45 147v409q0 90 39 133t128 43h62q89 0 129 -19q60 -28 60 -105v-132h-160v95q0 31 -42 31q-44 0 -44 -31v-418q0 -31 43 -31t43 31v114h160v-107q0 -97 -47 -135q-42 -33 -142 -33h-62q-167 0 -167 155zM236 831l-115 148h113l64 -82l64 82h113l-115 -148h-124z" />
    <glyph glyph-name="ccaron" unicode="&#x10d;" horiz-adv-x="441" 
d="M37 154v202q0 98 55 134q43 28 147 28q162 0 162 -98v-87h-130v26q0 47 -40 47t-40 -47v-208q0 -47 40 -47t40 47v48h136v-45q0 -93 -27 -123q-35 -39 -147 -39q-101 0 -144 29q-52 36 -52 133zM37 576l-115 148h113l64 -82l64 82h113l-115 -148h-124z" />
    <glyph glyph-name="Dslash" unicode="&#x110;" horiz-adv-x="520" 
d="M8 311v130h47v283h216q121 0 160 -47q44 -53 44 -225v-181q0 -172 -44 -225q-38 -46 -160 -46h-216v311h-47zM221 600v-159h47v-130h-47v-181h44q30 0 39 22q5 12 5 48v330q0 36 -5 48q-9 22 -39 22h-44z" />
    <glyph glyph-name="dcroat" unicode="&#x111;" 
d="M201 372v-234q0 -28 34 -28t34 28v234q0 28 -34 28t-34 -28zM269 545h-113v112h113v67h148v-67h27v-112h-27v-545h-141v53h-2q-21 -36 -43.5 -48.5t-64.5 -12.5q-69 0 -96 36q-23 31 -23 103v284q0 103 111 103q72 0 109 -53h2v80z" />
    <glyph glyph-name="Gbreve" unicode="&#x11e;" horiz-adv-x="767" 
d="M45 141v442q0 91 66 125q47 24 149 24q110 0 156 -30q59 -38 59 -141v-71h-160v76q0 42 -54 42q-44 0 -44 -45v-420q0 -27 45 -27q53 0 53 24v114h-51v136h211v-233q0 -106 -57 -140q-42 -25 -158 -25q-102 0 -149 24q-66 34 -66 125zM150 979h64q13 -69 103 -69t103 69
h64q-18 -145 -167 -145t-167 145z" />
    <glyph glyph-name="gbreve" unicode="&#x11f;" horiz-adv-x="492" 
d="M195 376v-244q0 -30 37 -30t37 30v244q0 30 -37 30t-37 -30zM47 121v263q0 134 108 134q82 0 123 -55h2v47h137v-555q0 -89 -59 -121q-41 -22 -141 -22q-154 0 -154 113v27h130v-11q0 -23 38 -23t38 34v91h-2q-35 -47 -101 -47q-119 0 -119 125zM-50 724h64
q13 -69 103 -69t103 69h64q-18 -145 -167 -145t-167 145z" />
    <glyph glyph-name="glyph273" unicode="&#x128;" horiz-adv-x="296" 
d="M65 0v724h166v-724h-166zM34 800h-52q52 99 127 99q18 0 53.5 -14.5t48.5 -14.5q35 0 48 33h53q-44 -97 -120 -98q-18 0 -56.5 13.5t-54.5 13.5q-33 0 -47 -32z" />
    <glyph glyph-name="glyph274" unicode="&#x129;" horiz-adv-x="242" 
d="M47 0v510h148v-510h-148zM19 585h-46q45 89 114 89q16 0 48 -13t44 -13q31 0 43 30h47q-40 -89 -108 -89q-16 0 -50.5 12.5t-48.5 12.5q-30 0 -43 -29z" />
    <glyph glyph-name="Idotaccent" unicode="&#x130;" horiz-adv-x="429" 
d="M65 0v724h166v-724h-166zM83 861v118h130v-118h-130z" />
    <glyph glyph-name="dotlessi" unicode="&#x131;" horiz-adv-x="242" 
d="M47 0v510h148v-510h-148z" />
    <glyph glyph-name="Lslash" unicode="&#x141;" horiz-adv-x="407" 
d="M55 0v261l-44 -27v94l44 27v369h166v-278l110 68v-93l-110 -68v-223h161v-130h-327z" />
    <glyph glyph-name="lslash" unicode="&#x142;" horiz-adv-x="242" 
d="M47 0v282l-45 -28v94l45 28v348h148v-266l45 28v-94l-45 -28v-364h-148z" />
    <glyph glyph-name="OE" unicode="&#x152;" horiz-adv-x="685" 
d="M312 150v424q0 34 -49 34q-41 0 -41 -34v-424q0 -34 41 -34q49 0 49 34zM344 0v31h-2q-22 -39 -118 -39q-91 0 -129 27q-45 33 -45 120v399q0 100 33 144q38 50 135 50q53 0 72 -4q42 -9 58 -37l2 -2v35h284v-130h-156v-159h144v-124h-144v-181h167v-130h-301z" />
    <glyph glyph-name="oe" unicode="&#x153;" horiz-adv-x="685" 
d="M37 154v202q0 96 52 133q42 30 143 29q78 0 112 -40q28 40 109 40q92 0 136 -24q59 -33 59 -117v-158h-233v-86q0 -35 43 -35q40 0 40 36v24h150v-29q0 -85 -50 -115q-37 -22 -131 -22t-126 42q-21 -42 -108 -42q-101 0 -144 29q-52 36 -52 133zM191 369v-228
q0 -37 37 -37q39 0 39 37v228q0 37 -39 37q-37 0 -37 -37zM415 313h79v69q0 30 -40 30q-39 0 -39 -30v-69z" />
    <glyph glyph-name="Scedilla" unicode="&#x15e;" horiz-adv-x="656" 
d="M195 238v-52q0 -43 6 -54q9 -16 43 -16q49 0 49 43v78q0 41 -30 56q-8 4 -68 18q-93 22 -123.5 59t-30.5 132v44q0 120 46 156q39 30 164 30q93 0 135 -24q57 -32 57 -117v-87h-148v35q0 42 -4 51q-8 18 -43 18q-29 0 -38 -11t-9 -41v-48q0 -34 14 -47q11 -10 47 -19
q135 -35 165 -70q32 -38 32 -175q0 -124 -50 -168q-42 -37 -155 -37q-124 0 -165 32q-48 37 -48 154v60h154zM37 -203l17 39q51 -16 84 -16q45 0 45 39q0 35 -41 35q-23 0 -43 -8l-21 24l59 90h54l-43 -61l2 -2q12 6 31 6q38 0 64 -20t26 -57q0 -48 -42 -73q-34 -21 -85 -21
q-34 0 -107 25z" />
    <glyph glyph-name="scedilla" unicode="&#x15f;" horiz-adv-x="383" 
d="M38 113v45h136v-14q0 -25 5 -34q7 -12 30 -12q24 0 31 12q6 9 4 34q-2 37 -23 46q-6 3 -57 10q-74 11 -101.5 42t-27.5 106q0 108 36 140q31 28 138 30q78 2 114 -13q57 -23 57 -88v-59h-130v24q0 36 -33 36q-22 0 -29 -13q-5 -9 -5 -33q0 -30 19 -40q9 -5 48 -11
q86 -14 111 -37q29 -27 31 -110q2 -113 -41 -151q-35 -31 -134 -31q-90 0 -125 17q-54 26 -54 104zM-60 -203l17 39q51 -16 84 -16q45 0 45 39q0 35 -41 35q-23 0 -43 -8l-21 24l59 90h54l-43 -61l2 -2q12 6 31 6q38 0 64 -20t26 -57q0 -48 -42 -73q-34 -21 -85 -21
q-34 0 -107 25z" />
    <glyph glyph-name="Scaron" unicode="&#x160;" horiz-adv-x="500" 
d="M195 238v-52q0 -43 6 -54q9 -16 43 -16q49 0 49 43v78q0 41 -30 56q-8 4 -68 18q-93 22 -123.5 59t-30.5 132v44q0 120 46 156q39 30 164 30q93 0 135 -24q57 -32 57 -117v-87h-148v35q0 42 -4 51q-8 18 -43 18q-29 0 -38 -11t-9 -41v-48q0 -34 14 -47q11 -10 47 -19
q135 -35 165 -70q32 -38 32 -175q0 -124 -50 -168q-42 -37 -155 -37q-124 0 -165 32q-48 37 -48 154v60h154zM188 760l-115 148h113l64 -82l64 82h113l-115 -148h-124z" />
    <glyph glyph-name="scaron" unicode="&#x161;" horiz-adv-x="427" 
d="M38 113v45h136v-14q0 -25 5 -34q7 -12 30 -12q24 0 31 12q6 9 4 34q-2 37 -23 46q-6 3 -57 10q-74 11 -101.5 42t-27.5 106q0 108 36 140q31 28 138 30q78 2 114 -13q57 -23 57 -88v-59h-130v24q0 36 -33 36q-22 0 -29 -13q-5 -9 -5 -33q0 -30 19 -40q9 -5 48 -11
q86 -14 111 -37q29 -27 31 -110q2 -113 -41 -151q-35 -31 -134 -31q-90 0 -125 17q-54 26 -54 104zM152 576l-115 148h113l64 -82l64 82h113l-115 -148h-124z" />
    <glyph glyph-name="ch903" unicode="&#x168;" horiz-adv-x="520" 
d="M470 724v-551q0 -112 -55 -151q-43 -30 -155 -30t-155 30q-55 39 -55 151v551h166v-556q0 -46 44 -46t44 46v556h166zM147 780h-52q52 99 127 99q18 0 53.5 -14.5t48.5 -14.5q35 0 48 33h53q-44 -97 -120 -98q-18 0 -56.5 13.5t-54.5 13.5q-33 0 -47 -32z" />
    <glyph glyph-name="ch904" unicode="&#x169;" 
d="M47 109v401h148v-365q0 -35 38 -35q36 0 36 35v365h148v-510h-148v56h-2q-30 -64 -104 -64q-116 0 -116 117zM130 576h-46q45 89 114 89q16 0 48 -13t44 -13q31 0 43 30h47q-40 -89 -108 -89q-16 0 -50.5 12.5t-48.5 12.5q-30 0 -43 -29z" />
    <glyph glyph-name="Ydieresis" unicode="&#x178;" 
d="M152 0v234l-152 490h164l67 -326h2l67 326h164l-152 -490v-234h-160zM68 765v118h130v-118h-130zM266 765v118h130v-118h-130z" />
    <glyph glyph-name="Zcaron" unicode="&#x17d;" horiz-adv-x="426" 
d="M44 594v130h345v-126l-185 -468h185v-130h-364v124l186 470h-167zM151 760l-115 148h113l64 -82l64 82h113l-115 -148h-124z" />
    <glyph glyph-name="zcaron" unicode="&#x17e;" horiz-adv-x="353" 
d="M25 0v111l144 293h-135v106h287v-123l-138 -281h145v-106h-303zM115 576l-115 148h113l64 -82l64 82h113l-115 -148h-124z" />
    <glyph glyph-name="florin" unicode="&#x192;" horiz-adv-x="500" 
d="M-15 -177v122q28 -15 53 -15q34 0 50 38q9 20 16 67l51 328h-81v112h94q20 129 62 185q54 72 174 72q26 0 68 -7v-118q-33 7 -47 7q-49 0 -73 -48q-14 -28 -22 -91h89v-112h-103l-48 -310q-18 -115 -49 -166q-46 -75 -144 -75q-66 0 -90 11z" />
    <glyph glyph-name="glyph277" unicode="&#x1a0;" horiz-adv-x="520" 
d="M303 150v424q0 34 -43 34t-43 -34v-424q0 -34 43 -34t43 34zM429 695q33 25 33 48q0 35 -41 35q-9 0 -20 -3l15 10q23 15 49 15q23 0 39 -14.5t16 -37.5q0 -53 -71 -73q26 -34 26 -92v-442q0 -91 -66 -125q-47 -24 -149 -24t-149 24q-66 34 -66 125v442q0 91 66 125
q47 24 149 24q121 0 169 -37z" />
    <glyph glyph-name="glyph278" unicode="&#x1a1;" 
d="M191 369v-228q0 -22 9 -29.5t32 -7.5t32 7.5t9 29.5v228q0 22 -9 29.5t-32 7.5t-32 -7.5t-9 -29.5zM394 473q33 -36 33 -117v-202q0 -95 -52 -132q-43 -30 -143 -30t-143 30q-52 37 -52 132v202q0 95 52 132q43 30 143 30q77 0 118 -15l42 2q11 11 11 25q0 19 -20 26
q-13 5 -29 0l21 8q19 12 39 12q45 0 45 -42q0 -46 -65 -61z" />
    <glyph glyph-name="glyph279" unicode="&#x1af;" horiz-adv-x="520" 
d="M470 694v-521q0 -112 -55 -151q-43 -30 -155 -30t-155 30q-55 39 -55 151v551h166v-556q0 -46 44 -46t44 46v556l119 -2l49 2q5 3 15 12q3 3 7 16q4 36 -45 36q-9 0 -21 -3l16 11q22 15 51 15q24 0 41 -15q22 -19 17 -42q-6 -29 -29 -42q-15 -9 -54 -18z" />
    <glyph glyph-name="glyph280" unicode="&#x1b0;" 
d="M417 473v-473h-148v56h-2q-30 -64 -104 -64q-116 0 -116 117v401h148v-365q0 -35 38 -35q36 0 36 35v365l148 -5q11 11 11 25q0 19 -20 26q-13 5 -29 0l21 8q19 12 39 12q45 0 45 -42q0 -46 -65 -61h-2z" />
    <glyph glyph-name="circumflex" unicode="&#x2c6;" horiz-adv-x="242" 
d="M-56 576l115 148h124l115 -148h-113l-64 82l-64 -82h-113z" />
    <glyph glyph-name="caron" unicode="&#x2c7;" horiz-adv-x="242" 
d="M59 576l-115 148h113l64 -82l64 82h113l-115 -148h-124z" />
    <glyph glyph-name="breve" unicode="&#x2d8;" horiz-adv-x="242" 
d="M-46 724h64q13 -69 103 -69t103 69h64q-18 -145 -167 -145t-167 145z" />
    <glyph glyph-name="dotaccent" unicode="&#x2d9;" horiz-adv-x="242" 
d="M56 606v118h130v-118h-130z" />
    <glyph glyph-name="ring" unicode="&#x2da;" horiz-adv-x="242" 
d="M14 683q0 48 29.5 77.5t77.5 29.5t77.5 -29.5t29.5 -77.5q0 -47 -30 -77t-77 -30t-77 30t-30 77zM74 683q0 -19 14 -33t33 -14q20 0 33.5 13.5t13.5 33.5t-13.5 33.5t-33.5 13.5t-33.5 -13.5t-13.5 -33.5z" />
    <glyph glyph-name="ogonek" unicode="&#x2db;" horiz-adv-x="242" 
d="M232 -158l5 -16q-47 -54 -97 -54q-79 0 -79 85q0 83 120 143h14q-68 -70 -68 -123q0 -57 50 -57q26 0 55 22z" />
    <glyph glyph-name="tilde" unicode="&#x2dc;" horiz-adv-x="242" 
d="M2 594v0h-64q25 125 117 125q24 0 72 -19t65 -19q40 0 47 43h65q-7 -51 -31 -84q-29 -40 -77 -40q-26 0 -76.5 17.5t-73.5 17.5q-39 0 -44 -41z" />
    <glyph glyph-name="hungarumlaut" unicode="&#x2dd;" horiz-adv-x="242" 
d="M-61 576l92 148h155l-148 -148h-99zM139 576l92 148h155l-148 -148h-99z" />
    <glyph glyph-name="glyph281" unicode="&#x1ea0;" horiz-adv-x="520" 
d="M300 298l-39 326h-2l-39 -326h80zM16 0l109 724h270l109 -724h-169l-21 174h-108l-21 -174h-169zM201 -134v94h118v-94h-118z" />
    <glyph glyph-name="glyph282" unicode="&#x1ea1;" horiz-adv-x="444" 
d="M45 364v64q0 61 56 80q30 10 107 10q106 0 144 -25q45 -30 45 -119v-374h-142v43h-2q-23 -31 -45 -41t-62 -10q-75 0 -103 48q-20 35 -20 117q0 78 24 113q30 43 104 43q58 0 98 -33v113q0 25 -38 25q-36 0 -36 -26v-28h-130zM177 176v-29q0 -43 36 -43t36 37v41
q0 37 -36 37t-36 -43zM155 -134v84h106v-84h-106z" />
    <glyph glyph-name="glyph283" unicode="&#x1ea2;" horiz-adv-x="520" 
d="M300 298l-39 326h-2l-39 -326h80zM16 0l109 724h270l109 -724h-169l-21 174h-108l-21 -174h-169zM185 943q0 41 15.5 58.5t55.5 18.5q52 1 70.5 -17t18.5 -71q0 -31 -4.5 -43t-27 -30t-22.5 -30v-19l-31 -20l-31 20v32q0 20 7 30q5 7 24 19q16 10 19 19q2 6 2 27
q0 30 -18 30q-16 0 -16 -15v-34z" />
    <glyph glyph-name="glyph284" unicode="&#x1ea3;" horiz-adv-x="444" 
d="M45 364v64q0 61 56 80q30 10 107 10q106 0 144 -25q45 -30 45 -119v-374h-142v43h-2q-23 -31 -45 -41t-62 -10q-75 0 -103 48q-20 35 -20 117q0 78 24 113q30 43 104 43q58 0 98 -33v113q0 25 -38 25q-36 0 -36 -26v-28h-130zM177 176v-29q0 -43 36 -43t36 37v41
q0 37 -36 37t-36 -43zM137 735q0 39 14.5 56t52.5 18q50 1 67.5 -16t17.5 -68q0 -31 -3 -39q-4 -12 -26 -29t-22 -30v-18l-30 -19l-29 19v31q0 28 29 46q15 9 18 18q2 6 2 26q0 28 -17 28q-15 0 -15 -14v-32z" />
    <glyph glyph-name="glyph285" unicode="&#x1ea4;" horiz-adv-x="520" 
d="M300 298l-39 326h-2l-39 -326h80zM16 0l109 724h270l109 -724h-169l-21 174h-108l-21 -174h-169zM101 760l113 135h92l113 -135h-91l-68 64l-68 -64h-91zM389 824l82 143h155l-178 -143h-59z" />
    <glyph glyph-name="glyph286" unicode="&#x1ea5;" horiz-adv-x="444" 
d="M45 364v64q0 61 56 80q30 10 107 10q106 0 144 -25q45 -30 45 -119v-374h-142v43h-2q-23 -31 -45 -41t-62 -10q-75 0 -103 48q-20 35 -20 117q0 78 24 113q30 43 104 43q58 0 98 -33v113q0 25 -38 25q-36 0 -36 -26v-28h-130zM177 176v-29q0 -43 36 -43t36 37v41
q0 37 -36 37t-36 -43zM65 552l101 121h83l102 -121h-82l-61 57l-61 -57h-82zM324 609l74 129h139l-160 -129h-53z" />
    <glyph glyph-name="glyph287" unicode="&#x1ea6;" horiz-adv-x="520" 
d="M300 298l-39 326h-2l-39 -326h80zM16 0l109 724h270l109 -724h-169l-21 174h-108l-21 -174h-169zM101 760l113 135h92l113 -135h-91l-68 64l-68 -64h-91zM131 824h-59l-178 143h155z" />
    <glyph glyph-name="glyph288" unicode="&#x1ea7;" horiz-adv-x="444" 
d="M45 364v64q0 61 56 80q30 10 107 10q106 0 144 -25q45 -30 45 -119v-374h-142v43h-2q-23 -31 -45 -41t-62 -10q-75 0 -103 48q-20 35 -20 117q0 78 24 113q30 43 104 43q58 0 98 -33v113q0 25 -38 25q-36 0 -36 -26v-28h-130zM177 176v-29q0 -43 36 -43t36 37v41
q0 37 -36 37t-36 -43zM64 551l102 121h83l101 -121h-82l-61 57l-61 -57h-82zM101 618h-53l-140 129h129z" />
    <glyph glyph-name="glyph289" unicode="&#x1ea8;" horiz-adv-x="520" 
d="M300 298l-39 326h-2l-39 -326h80zM16 0l109 724h270l109 -724h-169l-21 174h-108l-21 -174h-169zM101 760l113 135h92l113 -135h-91l-68 64l-68 -64h-91zM357 977q0 41 15.5 58.5t55.5 18.5q52 1 70.5 -17t18.5 -71q0 -31 -4.5 -43t-27 -30t-22.5 -30v-19l-31 -20l-31 20
v32q0 20 7 30q5 7 24 19q16 10 19 19q2 6 2 27q0 30 -18 30q-16 0 -16 -15v-34z" />
    <glyph glyph-name="glyph290" unicode="&#x1ea9;" horiz-adv-x="444" 
d="M45 364v64q0 61 56 80q30 10 107 10q106 0 144 -25q45 -30 45 -119v-374h-142v43h-2q-23 -31 -45 -41t-62 -10q-75 0 -103 48q-20 35 -20 117q0 78 24 113q30 43 104 43q58 0 98 -33v113q0 25 -38 25q-36 0 -36 -26v-28h-130zM177 176v-29q0 -43 36 -43t36 37v41
q0 37 -36 37t-36 -43zM65 551l102 121h82l102 -121h-82l-61 57l-61 -57h-82zM309 760q0 39 14.5 56t52.5 18q50 1 67.5 -16t17.5 -68q0 -31 -3 -39q-4 -12 -26 -29t-22 -30v-18l-30 -19l-29 19v31q0 28 29 46q15 9 18 18q2 6 2 26q0 28 -17 28q-15 0 -15 -14v-32z" />
    <glyph glyph-name="glyph291" unicode="&#x1eaa;" horiz-adv-x="520" 
d="M300 298l-39 326h-2l-39 -326h80zM16 0l109 724h270l109 -724h-169l-21 174h-108l-21 -174h-169zM101 760l113 135h92l113 -135h-91l-68 64l-68 -64h-91zM147 930h-52q52 99 127 99q18 0 53.5 -14.5t48.5 -14.5q35 0 48 33h53q-44 -97 -120 -98q-18 0 -56.5 13.5
t-54.5 13.5q-33 0 -47 -32z" />
    <glyph glyph-name="glyph292" unicode="&#x1eab;" horiz-adv-x="444" 
d="M45 364v64q0 61 56 80q30 10 107 10q106 0 144 -25q45 -30 45 -119v-374h-142v43h-2q-23 -31 -45 -41t-62 -10q-75 0 -103 48q-20 35 -20 117q0 78 24 113q30 43 104 43q58 0 98 -33v113q0 25 -38 25q-36 0 -36 -26v-28h-130zM177 176v-29q0 -43 36 -43t36 37v41
q0 37 -36 37t-36 -43zM65 552l102 122h82l102 -122h-82l-61 58l-61 -58h-82zM106 705h-46q45 89 114 89q16 0 48 -13t44 -13q31 0 43 30h47q-40 -89 -108 -89q-16 0 -50.5 12.5t-48.5 12.5q-30 0 -43 -29z" />
    <glyph glyph-name="glyph293" unicode="&#x1eac;" horiz-adv-x="520" 
d="M300 298l-39 326h-2l-39 -326h80zM16 0l109 724h270l109 -724h-169l-21 174h-108l-21 -174h-169zM101 760l113 135h92l113 -135h-91l-68 64l-68 -64h-91zM201 -134v94h118v-94h-118z" />
    <glyph glyph-name="glyph294" unicode="&#x1ead;" horiz-adv-x="444" 
d="M45 364v64q0 61 56 80q30 10 107 10q106 0 144 -25q45 -30 45 -119v-374h-142v43h-2q-23 -31 -45 -41t-62 -10q-75 0 -103 48q-20 35 -20 117q0 78 24 113q30 43 104 43q58 0 98 -33v113q0 25 -38 25q-36 0 -36 -26v-28h-130zM177 176v-29q0 -43 36 -43t36 37v41
q0 37 -36 37t-36 -43zM64 551l102 121h83l101 -121h-82l-61 57l-61 -57h-82zM155 -134v84h106v-84h-106z" />
    <glyph glyph-name="glyph295" unicode="&#x1eae;" horiz-adv-x="520" 
d="M300 298l-39 326h-2l-39 -326h80zM16 0l109 724h270l109 -724h-169l-21 174h-108l-21 -174h-169zM111 910h57q7 -37 32 -51q20 -11 61 -11t61 11q25 14 32 51h57q-17 -130 -150 -130t-150 130zM230 920l82 143h155l-178 -143h-59z" />
    <glyph glyph-name="glyph296" unicode="&#x1eaf;" horiz-adv-x="444" 
d="M45 364v64q0 61 56 80q30 10 107 10q106 0 144 -25q45 -30 45 -119v-374h-142v43h-2q-23 -31 -45 -41t-62 -10q-75 0 -103 48q-20 35 -20 117q0 78 24 113q30 43 104 43q58 0 98 -33v113q0 25 -38 25q-36 0 -36 -26v-28h-130zM177 176v-29q0 -43 36 -43t36 37v41
q0 37 -36 37t-36 -43zM72 684h52q12 -55 83 -55q72 0 84 55h51q-15 -117 -135 -117t-135 117zM179 693l74 129h140l-161 -129h-53z" />
    <glyph glyph-name="glyph297" unicode="&#x1eb0;" horiz-adv-x="520" 
d="M300 298l-39 326h-2l-39 -326h80zM16 0l109 724h270l109 -724h-169l-21 174h-108l-21 -174h-169zM111 910h57q7 -37 32 -51q20 -11 61 -11t61 11q25 14 32 51h57q-17 -130 -150 -130t-150 130zM291 920h-59l-178 143h155z" />
    <glyph glyph-name="glyph298" unicode="&#x1eb1;" horiz-adv-x="444" 
d="M45 364v64q0 61 56 80q30 10 107 10q106 0 144 -25q45 -30 45 -119v-374h-142v43h-2q-23 -31 -45 -41t-62 -10q-75 0 -103 48q-20 35 -20 117q0 78 24 113q30 43 104 43q58 0 98 -33v113q0 25 -38 25q-36 0 -36 -26v-28h-130zM177 176v-29q0 -43 36 -43t36 37v41
q0 37 -36 37t-36 -43zM73 684h51q12 -55 84 -55q71 0 83 55h52q-15 -117 -135 -117t-135 117zM235 693h-53l-161 129h140z" />
    <glyph glyph-name="glyph299" unicode="&#x1eb2;" horiz-adv-x="520" 
d="M300 298l-39 326h-2l-39 -326h80zM16 0l109 724h270l109 -724h-169l-21 174h-108l-21 -174h-169zM111 910h57q7 -37 32 -51q20 -11 61 -11t61 11q25 14 32 51h57q-17 -130 -150 -130t-150 130zM189 1055q0 39 14.5 56t52.5 18q50 1 67.5 -16t17.5 -68q0 -31 -3 -39
q-4 -12 -26 -29t-22 -30v-18l-30 -19l-29 19v31q0 28 29 46q15 9 18 18q2 6 2 26q0 28 -17 28q-15 0 -15 -14v-32z" />
    <glyph glyph-name="glyph300" unicode="&#x1eb3;" horiz-adv-x="444" 
d="M45 364v64q0 61 56 80q30 10 107 10q106 0 144 -25q45 -30 45 -119v-374h-142v43h-2q-23 -31 -45 -41t-62 -10q-75 0 -103 48q-20 35 -20 117q0 78 24 113q30 43 104 43q58 0 98 -33v113q0 25 -38 25q-36 0 -36 -26v-28h-130zM177 176v-29q0 -43 36 -43t36 37v41
q0 37 -36 37t-36 -43zM73 684h51q12 -56 84 -56t84 56h51q-15 -117 -135 -117t-135 117zM136 832q0 39 14.5 56t52.5 18q50 1 67.5 -16t17.5 -68q0 -31 -3 -39q-4 -12 -26 -29t-22 -30v-18l-30 -19l-29 19v31q0 28 29 46q15 9 18 18q2 6 2 26q0 28 -17 28q-15 0 -15 -14v-32
z" />
    <glyph glyph-name="glyph301" unicode="&#x1eb4;" horiz-adv-x="520" 
d="M300 298l-39 326h-2l-39 -326h80zM16 0l109 724h270l109 -724h-169l-21 174h-108l-21 -174h-169zM111 910h57q7 -37 32 -51q20 -11 61 -11t61 11q25 14 32 51h57q-17 -130 -150 -130t-150 130zM283 930h-52q52 99 127 99q18 0 53.5 -14.5t48.5 -14.5q35 0 48 33h53
q-44 -97 -120 -98q-18 0 -56.5 13.5t-54.5 13.5q-33 0 -47 -32z" />
    <glyph glyph-name="glyph302" unicode="&#x1eb5;" horiz-adv-x="444" 
d="M45 364v64q0 61 56 80q30 10 107 10q106 0 144 -25q45 -30 45 -119v-374h-142v43h-2q-23 -31 -45 -41t-62 -10q-75 0 -103 48q-20 35 -20 117q0 78 24 113q30 43 104 43q58 0 98 -33v113q0 25 -38 25q-36 0 -36 -26v-28h-130zM177 176v-29q0 -43 36 -43t36 37v41
q0 37 -36 37t-36 -43zM72 684h51q7 -34 29 -46q18 -10 55 -10q36 0 54 10q22 13 29 46h52q-15 -117 -135 -117t-135 117zM227 702h-47q47 89 114 89q15 0 47.5 -13t44.5 -13q32 0 43 29h48q-41 -87 -108 -88q-17 0 -50.5 12t-49.5 12q-30 0 -42 -28z" />
    <glyph glyph-name="glyph303" unicode="&#x1eb6;" horiz-adv-x="520" 
d="M300 298l-39 326h-2l-39 -326h80zM16 0l109 724h270l109 -724h-169l-21 174h-108l-21 -174h-169zM111 910h57q7 -37 32 -51q20 -11 61 -11t61 11q25 14 32 51h57q-17 -130 -150 -130t-150 130zM201 -134v94h118v-94h-118z" />
    <glyph glyph-name="glyph304" unicode="&#x1eb7;" horiz-adv-x="444" 
d="M45 364v64q0 61 56 80q30 10 107 10q106 0 144 -25q45 -30 45 -119v-374h-142v43h-2q-23 -31 -45 -41t-62 -10q-75 0 -103 48q-20 35 -20 117q0 78 24 113q30 43 104 43q58 0 98 -33v113q0 25 -38 25q-36 0 -36 -26v-28h-130zM177 176v-29q0 -43 36 -43t36 37v41
q0 37 -36 37t-36 -43zM155 -134v84h106v-84h-106zM72 684h52q12 -55 83 -55q72 0 84 55h51q-15 -117 -135 -117t-135 117z" />
    <glyph glyph-name="glyph305" unicode="&#x1eb8;" horiz-adv-x="426" 
d="M55 0v724h319v-130h-153v-159h142v-124h-142v-181h165v-130h-331zM155 -134v94h118v-94h-118z" />
    <glyph glyph-name="glyph306" unicode="&#x1eb9;" 
d="M37 154v202q0 95 52 132q43 30 143 30q92 0 136 -24q59 -33 59 -117v-158h-236v-86q0 -23 11 -30q8 -5 33 -5q42 0 42 36v24h150v-29q0 -88 -56 -117q-39 -20 -139 -20t-143 30q-52 37 -52 132zM191 388v-75h82v75q0 30 -41 30t-41 -30zM179 -134v84h106v-84h-106z" />
    <glyph glyph-name="glyph307" unicode="&#x1eba;" horiz-adv-x="426" 
d="M55 0v724h319v-130h-153v-159h142v-124h-142v-181h165v-130h-331zM139 943q0 41 15.5 58.5t55.5 18.5q52 1 70.5 -17t18.5 -71q0 -31 -4.5 -43t-27 -30t-22.5 -30v-19l-31 -20l-31 20v32q0 20 7 30q5 7 24 19q16 10 19 19q2 6 2 27q0 30 -18 30q-16 0 -16 -15v-34z" />
    <glyph glyph-name="glyph308" unicode="&#x1ebb;" 
d="M37 154v202q0 95 52 132q43 30 143 30q92 0 136 -24q59 -33 59 -117v-158h-236v-86q0 -23 11 -30q8 -5 33 -5q42 0 42 36v24h150v-29q0 -88 -56 -117q-39 -20 -139 -20t-143 30q-52 37 -52 132zM191 388v-75h82v75q0 30 -41 30t-41 -30zM160 735q0 39 14.5 56t52.5 18
q50 1 67.5 -16t17.5 -68q0 -31 -3 -39q-4 -12 -26 -29t-22 -30v-18l-30 -19l-29 19v31q0 28 29 46q15 9 18 18q2 6 2 26q0 28 -17 28q-15 0 -15 -14v-32z" />
    <glyph glyph-name="glyph309" unicode="&#x1ebc;" horiz-adv-x="426" 
d="M55 0v724h319v-130h-153v-159h142v-124h-142v-181h165v-130h-331zM101 800h-52q52 99 127 99q18 0 53.5 -14.5t48.5 -14.5q35 0 48 33h53q-44 -97 -120 -98q-18 0 -56.5 13.5t-54.5 13.5q-33 0 -47 -32z" />
    <glyph glyph-name="glyph310" unicode="&#x1ebd;" 
d="M37 154v202q0 95 52 132q43 30 143 30q92 0 136 -24q59 -33 59 -117v-158h-236v-86q0 -23 11 -30q8 -5 33 -5q42 0 42 36v24h150v-29q0 -88 -56 -117q-39 -20 -139 -20t-143 30q-52 37 -52 132zM191 388v-75h82v75q0 30 -41 30t-41 -30zM129 600h-46q45 89 114 89
q16 0 48 -13t44 -13q31 0 43 30h47q-40 -89 -108 -89q-16 0 -50.5 12.5t-48.5 12.5q-30 0 -43 -29z" />
    <glyph glyph-name="glyph311" unicode="&#x1ebe;" horiz-adv-x="426" 
d="M55 0v724h319v-130h-153v-159h142v-124h-142v-181h165v-130h-331zM55 759l113 135h92l113 -135h-91l-68 64l-68 -64h-91zM343 823l82 143h155l-178 -143h-59z" />
    <glyph glyph-name="glyph312" unicode="&#x1ebf;" 
d="M37 154v202q0 95 52 132q43 30 143 30q92 0 136 -24q59 -33 59 -117v-158h-236v-86q0 -23 11 -30q8 -5 33 -5q42 0 42 36v24h150v-29q0 -88 -56 -117q-39 -20 -139 -20t-143 30q-52 37 -52 132zM191 388v-75h82v75q0 30 -41 30t-41 -30zM88 552l101 121h83l102 -121h-82
l-61 57l-61 -57h-82zM347 609l74 129h139l-160 -129h-53z" />
    <glyph glyph-name="glyph313" unicode="&#x1ec0;" horiz-adv-x="426" 
d="M55 0v724h319v-130h-153v-159h142v-124h-142v-181h165v-130h-331zM55 760l113 135h92l113 -135h-91l-68 64l-68 -64h-91zM85 824h-59l-178 143h155z" />
    <glyph glyph-name="glyph314" unicode="&#x1ec1;" 
d="M37 154v202q0 95 52 132q43 30 143 30q92 0 136 -24q59 -33 59 -117v-158h-236v-86q0 -23 11 -30q8 -5 33 -5q42 0 42 36v24h150v-29q0 -88 -56 -117q-39 -20 -139 -20t-143 30q-52 37 -52 132zM191 388v-75h82v75q0 30 -41 30t-41 -30zM88 552l102 121h83l101 -121h-82
l-61 57l-61 -57h-82zM125 619h-53l-140 129h129z" />
    <glyph glyph-name="glyph315" unicode="&#x1ec2;" horiz-adv-x="426" 
d="M55 0v724h319v-130h-153v-159h142v-124h-142v-181h165v-130h-331zM55 760l113 135h92l113 -135h-91l-68 64l-68 -64h-91zM311 977q0 41 15.5 58.5t55.5 18.5q52 1 70.5 -17t18.5 -71q0 -31 -4.5 -43t-27 -30t-22.5 -30v-19l-31 -20l-31 20v32q0 20 7 30q5 7 24 19
q16 10 19 19q2 6 2 27q0 30 -18 30q-16 0 -16 -15v-34z" />
    <glyph glyph-name="glyph316" unicode="&#x1ec3;" 
d="M37 154v202q0 95 52 132q43 30 143 30q92 0 136 -24q59 -33 59 -117v-158h-236v-86q0 -23 11 -30q8 -5 33 -5q42 0 42 36v24h150v-29q0 -88 -56 -117q-39 -20 -139 -20t-143 30q-52 37 -52 132zM191 388v-75h82v75q0 30 -41 30t-41 -30zM88 551l102 121h82l102 -121h-82
l-61 57l-61 -57h-82zM332 760q0 39 14.5 56t52.5 18q50 1 67.5 -16t17.5 -68q0 -31 -3 -39q-4 -12 -26 -29t-22 -30v-18l-30 -19l-29 19v31q0 28 29 46q15 9 18 18q2 6 2 26q0 28 -17 28q-15 0 -15 -14v-32z" />
    <glyph glyph-name="glyph317" unicode="&#x1ec4;" horiz-adv-x="426" 
d="M55 0v724h319v-130h-153v-159h142v-124h-142v-181h165v-130h-331zM55 760l113 135h92l113 -135h-91l-68 64l-68 -64h-91zM101 930h-52q52 99 127 99q18 0 53.5 -14.5t48.5 -14.5q35 0 48 33h53q-44 -97 -120 -98q-18 0 -56.5 13.5t-54.5 13.5q-33 0 -47 -32z" />
    <glyph glyph-name="glyph318" unicode="&#x1ec5;" 
d="M37 154v202q0 95 52 132q43 30 143 30q92 0 136 -24q59 -33 59 -117v-158h-236v-86q0 -23 11 -30q8 -5 33 -5q42 0 42 36v24h150v-29q0 -88 -56 -117q-39 -20 -139 -20t-143 30q-52 37 -52 132zM191 388v-75h82v75q0 30 -41 30t-41 -30zM88 552l102 122h82l102 -122h-82
l-61 58l-61 -58h-82zM129 705h-46q45 89 114 89q16 0 48 -13t44 -13q31 0 43 30h47q-40 -89 -108 -89q-16 0 -50.5 12.5t-48.5 12.5q-30 0 -43 -29z" />
    <glyph glyph-name="glyph319" unicode="&#x1ec6;" horiz-adv-x="426" 
d="M55 0v724h319v-130h-153v-159h142v-124h-142v-181h165v-130h-331zM55 759l113 135h92l113 -135h-91l-68 64l-68 -64h-91zM155 -134v94h118v-94h-118z" />
    <glyph glyph-name="glyph320" unicode="&#x1ec7;" 
d="M37 154v202q0 95 52 132q43 30 143 30q92 0 136 -24q59 -33 59 -117v-158h-236v-86q0 -23 11 -30q8 -5 33 -5q42 0 42 36v24h150v-29q0 -88 -56 -117q-39 -20 -139 -20t-143 30q-52 37 -52 132zM191 388v-75h82v75q0 30 -41 30t-41 -30zM88 552l102 121h83l101 -121h-82
l-61 57l-61 -57h-82zM179 -134v84h106v-84h-106z" />
    <glyph glyph-name="glyph321" unicode="&#x1ec8;" horiz-adv-x="296" 
d="M65 0v724h166v-724h-166zM72 943q0 41 15.5 58.5t55.5 18.5q52 1 70.5 -17t18.5 -71q0 -31 -4.5 -43t-27 -30t-22.5 -30v-19l-31 -20l-31 20v32q0 20 7 30q5 7 24 19q16 10 19 19q2 6 2 27q0 30 -18 30q-16 0 -16 -15v-34z" />
    <glyph glyph-name="glyph322" unicode="&#x1ec9;" horiz-adv-x="242" 
d="M47 0v510h148v-510h-148zM49 725q0 39 14.5 56t52.5 18q50 1 67.5 -16t17.5 -68q0 -31 -3 -39q-4 -12 -26 -29t-22 -30v-18l-30 -19l-29 19v31q0 28 29 46q15 9 18 18q2 6 2 26q0 28 -17 28q-15 0 -15 -14v-32z" />
    <glyph glyph-name="glyph323" unicode="&#x1eca;" horiz-adv-x="296" 
d="M65 0v724h166v-724h-166zM88 -134v94h118v-94h-118z" />
    <glyph glyph-name="glyph324" unicode="&#x1ecb;" horiz-adv-x="242" 
d="M47 0v510h148v-510h-148zM56 576v106h134v-106h-134zM69 -134v84h106v-84h-106z" />
    <glyph glyph-name="glyph325" unicode="&#x1ecc;" horiz-adv-x="520" 
d="M303 150v424q0 34 -43 34t-43 -34v-424q0 -34 43 -34t43 34zM45 141v442q0 91 66 125q47 24 149 24t149 -24q66 -34 66 -125v-442q0 -91 -66 -125q-47 -24 -149 -24t-149 24q-66 34 -66 125zM201 -139v94h118v-94h-118z" />
    <glyph glyph-name="glyph326" unicode="&#x1ecd;" 
d="M37 154v202q0 95 52 132q43 30 143 30t143 -30q52 -37 52 -132v-202q0 -95 -52 -132q-43 -30 -143 -30t-143 30q-52 37 -52 132zM191 369v-228q0 -22 9 -29.5t32 -7.5t32 7.5t9 29.5v228q0 22 -9 29.5t-32 7.5t-32 -7.5t-9 -29.5zM179 -134v84h106v-84h-106z" />
    <glyph glyph-name="glyph327" unicode="&#x1ece;" horiz-adv-x="520" 
d="M303 150v424q0 34 -43 34t-43 -34v-424q0 -34 43 -34t43 34zM45 141v442q0 91 66 125q47 24 149 24t149 -24q66 -34 66 -125v-442q0 -91 -66 -125q-47 -24 -149 -24t-149 24q-66 34 -66 125zM185 943q0 41 15.5 58.5t55.5 18.5q52 1 70.5 -17t18.5 -71q0 -31 -4.5 -43
t-27 -30t-22.5 -30v-19l-31 -20l-31 20v32q0 20 7 30q5 7 24 19q16 10 19 19q2 6 2 27q0 30 -18 30q-16 0 -16 -15v-34z" />
    <glyph glyph-name="glyph328" unicode="&#x1ecf;" 
d="M37 154v202q0 95 52 132q43 30 143 30t143 -30q52 -37 52 -132v-202q0 -95 -52 -132q-43 -30 -143 -30t-143 30q-52 37 -52 132zM191 369v-228q0 -22 9 -29.5t32 -7.5t32 7.5t9 29.5v228q0 22 -9 29.5t-32 7.5t-32 -7.5t-9 -29.5zM161 735q0 39 14.5 56t52.5 18
q50 1 67.5 -16t17.5 -68q0 -31 -3 -39q-4 -12 -26 -29t-22 -30v-18l-30 -19l-29 19v31q0 28 29 46q15 9 18 18q2 6 2 26q0 28 -17 28q-15 0 -15 -14v-32z" />
    <glyph glyph-name="glyph329" unicode="&#x1ed0;" horiz-adv-x="520" 
d="M303 150v424q0 34 -43 34t-43 -34v-424q0 -34 43 -34t43 34zM45 141v442q0 91 66 125q47 24 149 24t149 -24q66 -34 66 -125v-442q0 -91 -66 -125q-47 -24 -149 -24t-149 24q-66 34 -66 125zM101 760l113 135h92l113 -135h-91l-68 64l-68 -64h-91zM389 824l82 143h155
l-178 -143h-59z" />
    <glyph glyph-name="glyph330" unicode="&#x1ed1;" 
d="M37 154v202q0 95 52 132q43 30 143 30t143 -30q52 -37 52 -132v-202q0 -95 -52 -132q-43 -30 -143 -30t-143 30q-52 37 -52 132zM191 369v-228q0 -22 9 -29.5t32 -7.5t32 7.5t9 29.5v228q0 22 -9 29.5t-32 7.5t-32 -7.5t-9 -29.5zM89 552l101 121h83l102 -121h-82l-61 57
l-61 -57h-82zM348 609l74 129h139l-160 -129h-53z" />
    <glyph glyph-name="glyph331" unicode="&#x1ed2;" horiz-adv-x="520" 
d="M303 150v424q0 34 -43 34t-43 -34v-424q0 -34 43 -34t43 34zM45 141v442q0 91 66 125q47 24 149 24t149 -24q66 -34 66 -125v-442q0 -91 -66 -125q-47 -24 -149 -24t-149 24q-66 34 -66 125zM101 780l113 135h92l113 -135h-91l-68 64l-68 -64h-91zM131 844h-59l-178 143
h155z" />
    <glyph glyph-name="glyph332" unicode="&#x1ed3;" 
d="M37 154v202q0 95 52 132q43 30 143 30t143 -30q52 -37 52 -132v-202q0 -95 -52 -132q-43 -30 -143 -30t-143 30q-52 37 -52 132zM191 369v-228q0 -22 9 -29.5t32 -7.5t32 7.5t9 29.5v228q0 22 -9 29.5t-32 7.5t-32 -7.5t-9 -29.5zM89 552l102 121h83l101 -121h-82l-61 57
l-61 -57h-82zM126 619h-53l-140 129h129z" />
    <glyph glyph-name="glyph333" unicode="&#x1ed4;" horiz-adv-x="520" 
d="M303 150v424q0 34 -43 34t-43 -34v-424q0 -34 43 -34t43 34zM45 141v442q0 91 66 125q47 24 149 24t149 -24q66 -34 66 -125v-442q0 -91 -66 -125q-47 -24 -149 -24t-149 24q-66 34 -66 125zM101 760l113 135h92l113 -135h-91l-68 64l-68 -64h-91zM357 977
q0 41 15.5 58.5t55.5 18.5q52 1 70.5 -17t18.5 -71q0 -31 -4.5 -43t-27 -30t-22.5 -30v-19l-31 -20l-31 20v32q0 20 7 30q5 7 24 19q16 10 19 19q2 6 2 27q0 30 -18 30q-16 0 -16 -15v-34z" />
    <glyph glyph-name="glyph334" unicode="&#x1ed5;" 
d="M37 154v202q0 95 52 132q43 30 143 30t143 -30q52 -37 52 -132v-202q0 -95 -52 -132q-43 -30 -143 -30t-143 30q-52 37 -52 132zM191 369v-228q0 -22 9 -29.5t32 -7.5t32 7.5t9 29.5v228q0 22 -9 29.5t-32 7.5t-32 -7.5t-9 -29.5zM89 551l102 121h82l102 -121h-82l-61 57
l-61 -57h-82zM333 760q0 39 14.5 56t52.5 18q50 1 67.5 -16t17.5 -68q0 -31 -3 -39q-4 -12 -26 -29t-22 -30v-18l-30 -19l-29 19v31q0 28 29 46q15 9 18 18q2 6 2 26q0 28 -17 28q-15 0 -15 -14v-32z" />
    <glyph glyph-name="glyph335" unicode="&#x1ed6;" horiz-adv-x="520" 
d="M303 150v424q0 34 -43 34t-43 -34v-424q0 -34 43 -34t43 34zM45 141v442q0 91 66 125q47 24 149 24t149 -24q66 -34 66 -125v-442q0 -91 -66 -125q-47 -24 -149 -24t-149 24q-66 34 -66 125zM101 760l113 135h92l113 -135h-91l-68 64l-68 -64h-91zM147 930h-52
q52 99 127 99q18 0 53.5 -14.5t48.5 -14.5q35 0 48 33h53q-44 -97 -120 -98q-18 0 -56.5 13.5t-54.5 13.5q-33 0 -47 -32z" />
    <glyph glyph-name="glyph336" unicode="&#x1ed7;" 
d="M37 154v202q0 95 52 132q43 30 143 30t143 -30q52 -37 52 -132v-202q0 -95 -52 -132q-43 -30 -143 -30t-143 30q-52 37 -52 132zM191 369v-228q0 -22 9 -29.5t32 -7.5t32 7.5t9 29.5v228q0 22 -9 29.5t-32 7.5t-32 -7.5t-9 -29.5zM89 552l102 122h82l102 -122h-82l-61 58
l-61 -58h-82zM130 705h-46q45 89 114 89q16 0 48 -13t44 -13q31 0 43 30h47q-40 -89 -108 -89q-16 0 -50.5 12.5t-48.5 12.5q-30 0 -43 -29z" />
    <glyph glyph-name="glyph337" unicode="&#x1ed8;" horiz-adv-x="520" 
d="M303 150v424q0 34 -43 34t-43 -34v-424q0 -34 43 -34t43 34zM45 141v442q0 91 66 125q47 24 149 24t149 -24q66 -34 66 -125v-442q0 -91 -66 -125q-47 -24 -149 -24t-149 24q-66 34 -66 125zM101 760l113 135h92l113 -135h-91l-68 64l-68 -64h-91zM201 -139v94h118v-94
h-118z" />
    <glyph glyph-name="glyph338" unicode="&#x1ed9;" 
d="M37 154v202q0 95 52 132q43 30 143 30t143 -30q52 -37 52 -132v-202q0 -95 -52 -132q-43 -30 -143 -30t-143 30q-52 37 -52 132zM191 369v-228q0 -22 9 -29.5t32 -7.5t32 7.5t9 29.5v228q0 22 -9 29.5t-32 7.5t-32 -7.5t-9 -29.5zM89 552l102 121h83l101 -121h-82l-61 57
l-61 -57h-82zM179 -134v84h106v-84h-106z" />
    <glyph glyph-name="glyph339" unicode="&#x1eda;" horiz-adv-x="520" 
d="M303 150v424q0 34 -43 34t-43 -34v-424q0 -34 43 -34t43 34zM429 695q33 25 33 48q0 35 -41 35q-9 0 -20 -3l15 10q23 15 49 15q23 0 39 -14.5t16 -37.5q0 -53 -71 -73q26 -34 26 -92v-442q0 -91 -66 -125q-47 -24 -149 -24t-149 24q-66 34 -66 125v442q0 91 66 125
q47 24 149 24q121 0 169 -37zM230 800l82 143h155l-178 -143h-59z" />
    <glyph glyph-name="glyph340" unicode="&#x1edb;" 
d="M191 369v-228q0 -22 9 -29.5t32 -7.5t32 7.5t9 29.5v228q0 22 -9 29.5t-32 7.5t-32 -7.5t-9 -29.5zM394 473q33 -36 33 -117v-202q0 -95 -52 -132q-43 -30 -143 -30t-143 30q-52 37 -52 132v202q0 95 52 132q43 30 143 30q77 0 118 -15l42 2q11 11 11 25q0 19 -20 26
q-13 5 -29 0l21 8q19 12 39 12q45 0 45 -42q0 -46 -65 -61zM206 600l74 129h139l-160 -129h-53z" />
    <glyph glyph-name="glyph341" unicode="&#x1edc;" horiz-adv-x="520" 
d="M303 150v424q0 34 -43 34t-43 -34v-424q0 -34 43 -34t43 34zM429 695q33 25 33 48q0 35 -41 35q-9 0 -20 -3l15 10q23 15 49 15q23 0 39 -14.5t16 -37.5q0 -53 -71 -73q26 -34 26 -92v-442q0 -91 -66 -125q-47 -24 -149 -24t-149 24q-66 34 -66 125v442q0 91 66 125
q47 24 149 24q121 0 169 -37zM290 800h-59l-178 143h155z" />
    <glyph glyph-name="glyph342" unicode="&#x1edd;" 
d="M191 369v-228q0 -22 9 -29.5t32 -7.5t32 7.5t9 29.5v228q0 22 -9 29.5t-32 7.5t-32 -7.5t-9 -29.5zM394 473q33 -36 33 -117v-202q0 -95 -52 -132q-43 -30 -143 -30t-143 30q-52 37 -52 132v202q0 95 52 132q43 30 143 30q77 0 118 -15l42 2q11 11 11 25q0 19 -20 26
q-13 5 -29 0l21 8q19 12 39 12q45 0 45 -42q0 -46 -65 -61zM259 600h-53l-140 129h129z" />
    <glyph glyph-name="glyph343" unicode="&#x1ede;" horiz-adv-x="520" 
d="M303 150v424q0 34 -43 34t-43 -34v-424q0 -34 43 -34t43 34zM429 695q33 25 33 48q0 35 -41 35q-9 0 -20 -3l15 10q23 15 49 15q23 0 39 -14.5t16 -37.5q0 -53 -71 -73q26 -34 26 -92v-442q0 -91 -66 -125q-47 -24 -149 -24t-149 24q-66 34 -66 125v442q0 91 66 125
q47 24 149 24q121 0 169 -37zM185 943q0 41 15.5 58.5t55.5 18.5q52 1 70.5 -17t18.5 -71q0 -31 -4.5 -43t-27 -30t-22.5 -30v-19l-31 -20l-31 20v32q0 20 7 30q5 7 24 19q16 10 19 19q2 6 2 27q0 30 -18 30q-16 0 -16 -15v-34z" />
    <glyph glyph-name="glyph344" unicode="&#x1edf;" 
d="M191 369v-228q0 -22 9 -29.5t32 -7.5t32 7.5t9 29.5v228q0 22 -9 29.5t-32 7.5t-32 -7.5t-9 -29.5zM394 473q33 -36 33 -117v-202q0 -95 -52 -132q-43 -30 -143 -30t-143 30q-52 37 -52 132v202q0 95 52 132q43 30 143 30q77 0 118 -15l42 2q11 11 11 25q0 19 -20 26
q-13 5 -29 0l21 8q19 12 39 12q45 0 45 -42q0 -46 -65 -61zM161 735q0 39 14.5 56t52.5 18q50 1 67.5 -16t17.5 -68q0 -31 -3 -39q-4 -12 -26 -29t-22 -30v-18l-30 -19l-29 19v31q0 28 29 46q15 9 18 18q2 6 2 26q0 28 -17 28q-15 0 -15 -14v-32z" />
    <glyph glyph-name="glyph345" unicode="&#x1ee0;" horiz-adv-x="520" 
d="M303 150v424q0 34 -43 34t-43 -34v-424q0 -34 43 -34t43 34zM429 695q33 25 33 48q0 35 -41 35q-9 0 -20 -3l15 10q23 15 49 15q23 0 39 -14.5t16 -37.5q0 -53 -71 -73q26 -34 26 -92v-442q0 -91 -66 -125q-47 -24 -149 -24t-149 24q-66 34 -66 125v442q0 91 66 125
q47 24 149 24q121 0 169 -37zM147 800h-52q52 99 127 99q18 0 53.5 -14.5t48.5 -14.5q35 0 48 33h53q-44 -97 -120 -98q-18 0 -56.5 13.5t-54.5 13.5q-33 0 -47 -32z" />
    <glyph glyph-name="glyph346" unicode="&#x1ee1;" 
d="M191 369v-228q0 -22 9 -29.5t32 -7.5t32 7.5t9 29.5v228q0 22 -9 29.5t-32 7.5t-32 -7.5t-9 -29.5zM394 473q33 -36 33 -117v-202q0 -95 -52 -132q-43 -30 -143 -30t-143 30q-52 37 -52 132v202q0 95 52 132q43 30 143 30q77 0 118 -15l42 2q11 11 11 25q0 19 -20 26
q-13 5 -29 0l21 8q19 12 39 12q45 0 45 -42q0 -46 -65 -61zM130 600h-46q45 89 114 89q16 0 48 -13t44 -13q31 0 43 30h47q-40 -89 -108 -89q-16 0 -50.5 12.5t-48.5 12.5q-30 0 -43 -29z" />
    <glyph glyph-name="glyph347" unicode="&#x1ee2;" horiz-adv-x="520" 
d="M303 150v424q0 34 -43 34t-43 -34v-424q0 -34 43 -34t43 34zM429 695q33 25 33 48q0 35 -41 35q-9 0 -20 -3l15 10q23 15 49 15q23 0 39 -14.5t16 -37.5q0 -53 -71 -73q26 -34 26 -92v-442q0 -91 -66 -125q-47 -24 -149 -24t-149 24q-66 34 -66 125v442q0 91 66 125
q47 24 149 24q121 0 169 -37zM201 -139v94h118v-94h-118z" />
    <glyph glyph-name="glyph348" unicode="&#x1ee3;" 
d="M191 369v-228q0 -22 9 -29.5t32 -7.5t32 7.5t9 29.5v228q0 22 -9 29.5t-32 7.5t-32 -7.5t-9 -29.5zM394 473q33 -36 33 -117v-202q0 -95 -52 -132q-43 -30 -143 -30t-143 30q-52 37 -52 132v202q0 95 52 132q43 30 143 30q77 0 118 -15l42 2q11 11 11 25q0 19 -20 26
q-13 5 -29 0l21 8q19 12 39 12q45 0 45 -42q0 -46 -65 -61zM179 -134v84h106v-84h-106z" />
    <glyph glyph-name="glyph349" unicode="&#x1ee4;" horiz-adv-x="520" 
d="M470 724v-551q0 -112 -55 -151q-43 -30 -155 -30t-155 30q-55 39 -55 151v551h166v-556q0 -46 44 -46t44 46v556h166zM201 -139v94h118v-94h-118z" />
    <glyph glyph-name="glyph350" unicode="&#x1ee5;" 
d="M47 109v401h148v-365q0 -35 38 -35q36 0 36 35v365h148v-510h-148v56h-2q-30 -64 -104 -64q-116 0 -116 117zM179 -134v84h106v-84h-106z" />
    <glyph glyph-name="glyph351" unicode="&#x1ee6;" horiz-adv-x="520" 
d="M470 724v-551q0 -112 -55 -151q-43 -30 -155 -30t-155 30q-55 39 -55 151v551h166v-556q0 -46 44 -46t44 46v556h166zM185 925q0 41 15.5 58.5t55.5 18.5q52 1 70.5 -17t18.5 -71q0 -31 -4.5 -43t-27 -30t-22.5 -30v-19l-31 -20l-31 20v32q0 20 7 30q5 7 24 19
q16 10 19 19q2 6 2 27q0 30 -18 30q-16 0 -16 -15v-34z" />
    <glyph glyph-name="glyph352" unicode="&#x1ee7;" 
d="M47 109v401h148v-365q0 -35 38 -35q36 0 36 35v365h148v-510h-148v56h-2q-30 -64 -104 -64q-116 0 -116 117zM161 711q0 39 14.5 56t52.5 18q50 1 67.5 -16t17.5 -68q0 -31 -3 -39q-4 -12 -26 -29t-22 -30v-18l-30 -19l-29 19v31q0 28 29 46q15 9 18 18q2 6 2 26
q0 28 -17 28q-15 0 -15 -14v-32z" />
    <glyph glyph-name="glyph353" unicode="&#x1ee8;" horiz-adv-x="520" 
d="M230 780l82 143h155l-178 -143h-59zM470 694v-521q0 -112 -55 -151q-43 -30 -155 -30t-155 30q-55 39 -55 151v551h166v-556q0 -46 44 -46t44 46v556l119 -2l49 2q5 3 15 12q3 3 7 16q4 36 -45 36q-9 0 -21 -3l16 11q22 15 51 15q24 0 41 -15q22 -19 17 -42
q-6 -29 -29 -42q-15 -9 -54 -18z" />
    <glyph glyph-name="glyph354" unicode="&#x1ee9;" 
d="M417 473v-473h-148v56h-2q-30 -64 -104 -64q-116 0 -116 117v401h148v-365q0 -35 38 -35q36 0 36 35v365l148 -5q11 11 11 25q0 19 -20 26q-13 5 -29 0l21 8q19 12 39 12q45 0 45 -42q0 -46 -65 -61h-2zM206 576l74 129h139l-160 -129h-53z" />
    <glyph glyph-name="glyph355" unicode="&#x1eea;" horiz-adv-x="520" 
d="M290 780h-59l-178 143h155zM470 694v-521q0 -112 -55 -151q-43 -30 -155 -30t-155 30q-55 39 -55 151v551h166v-556q0 -46 44 -46t44 46v556l119 -2l49 2q5 3 15 12q3 3 7 16q4 36 -45 36q-9 0 -21 -3l16 11q22 15 51 15q24 0 41 -15q22 -19 17 -42q-6 -29 -29 -42
q-15 -9 -54 -18z" />
    <glyph glyph-name="glyph356" unicode="&#x1eeb;" 
d="M417 473v-473h-148v56h-2q-30 -64 -104 -64q-116 0 -116 117v401h148v-365q0 -35 38 -35q36 0 36 35v365l148 -5q11 11 11 25q0 19 -20 26q-13 5 -29 0l21 8q19 12 39 12q45 0 45 -42q0 -46 -65 -61h-2zM258 576h-53l-140 129h129z" />
    <glyph glyph-name="glyph357" unicode="&#x1eec;" horiz-adv-x="520" 
d="M185 925q0 41 15.5 58.5t55.5 18.5q52 1 70.5 -17t18.5 -71q0 -31 -4.5 -43t-27 -30t-22.5 -30v-19l-31 -20l-31 20v32q0 20 7 30q5 7 24 19q16 10 19 19q2 6 2 27q0 30 -18 30q-16 0 -16 -15v-34zM470 694v-521q0 -112 -55 -151q-43 -30 -155 -30t-155 30
q-55 39 -55 151v551h166v-556q0 -46 44 -46t44 46v556l119 -2l49 2q5 3 15 12q3 3 7 16q4 36 -45 36q-9 0 -21 -3l16 11q22 15 51 15q24 0 41 -15q22 -19 17 -42q-6 -29 -29 -42q-15 -9 -54 -18z" />
    <glyph glyph-name="glyph358" unicode="&#x1eed;" 
d="M417 473v-473h-148v56h-2q-30 -64 -104 -64q-116 0 -116 117v401h148v-365q0 -35 38 -35q36 0 36 35v365l148 -5q11 11 11 25q0 19 -20 26q-13 5 -29 0l21 8q19 12 39 12q45 0 45 -42q0 -46 -65 -61h-2zM161 711q0 39 14.5 56t52.5 18q50 1 67.5 -16t17.5 -68
q0 -31 -3 -39q-4 -12 -26 -29t-22 -30v-18l-30 -19l-29 19v31q0 28 29 46q15 9 18 18q2 6 2 26q0 28 -17 28q-15 0 -15 -14v-32z" />
    <glyph glyph-name="glyph359" unicode="&#x1eee;" horiz-adv-x="520" 
d="M147 780h-52q52 99 127 99q18 0 53.5 -14.5t48.5 -14.5q35 0 48 33h53q-44 -97 -120 -98q-18 0 -56.5 13.5t-54.5 13.5q-33 0 -47 -32zM470 694v-521q0 -112 -55 -151q-43 -30 -155 -30t-155 30q-55 39 -55 151v551h166v-556q0 -46 44 -46t44 46v556l119 -2l49 2
q5 3 15 12q3 3 7 16q4 36 -45 36q-9 0 -21 -3l16 11q22 15 51 15q24 0 41 -15q22 -19 17 -42q-6 -29 -29 -42q-15 -9 -54 -18z" />
    <glyph glyph-name="glyph360" unicode="&#x1eef;" 
d="M417 473v-473h-148v56h-2q-30 -64 -104 -64q-116 0 -116 117v401h148v-365q0 -35 38 -35q36 0 36 35v365l148 -5q11 11 11 25q0 19 -20 26q-13 5 -29 0l21 8q19 12 39 12q45 0 45 -42q0 -46 -65 -61h-2zM130 576h-46q45 89 114 89q16 0 48 -13t44 -13q31 0 43 30h47
q-40 -89 -108 -89q-16 0 -50.5 12.5t-48.5 12.5q-30 0 -43 -29z" />
    <glyph glyph-name="glyph361" unicode="&#x1ef0;" horiz-adv-x="520" 
d="M201 -139v94h118v-94h-118zM470 694v-521q0 -112 -55 -151q-43 -30 -155 -30t-155 30q-55 39 -55 151v551h166v-556q0 -46 44 -46t44 46v556l119 -2l49 2q5 3 15 12q3 3 7 16q4 36 -45 36q-9 0 -21 -3l16 11q22 15 51 15q24 0 41 -15q22 -19 17 -42q-6 -29 -29 -42
q-15 -9 -54 -18z" />
    <glyph glyph-name="glyph362" unicode="&#x1ef1;" 
d="M417 473v-473h-148v56h-2q-30 -64 -104 -64q-116 0 -116 117v401h148v-365q0 -35 38 -35q36 0 36 35v365l148 -5q11 11 11 25q0 19 -20 26q-13 5 -29 0l21 8q19 12 39 12q45 0 45 -42q0 -46 -65 -61h-2zM179 -134v84h106v-84h-106z" />
    <glyph glyph-name="glyph363" unicode="&#x1ef2;" 
d="M152 0v234l-152 490h164l67 -326h2l67 326h164l-152 -490v-234h-160zM260 780h-59l-178 143h155z" />
    <glyph glyph-name="glyph364" unicode="&#x1ef3;" horiz-adv-x="408" 
d="M81 0l-71 510h148l45 -422h2l45 422h148l-85 -570q-11 -73 -52 -102q-37 -26 -113 -26q-38 0 -66 14v100q32 -8 41 -8q29 0 44 17q6 7 9 29q0 3 5 36h-100zM230 566h-53l-140 129h129z" />
    <glyph glyph-name="glyph365" unicode="&#x1ef4;" 
d="M152 0v234l-152 490h164l67 -326h2l67 326h164l-152 -490v-234h-160zM172 -134v94h118v-94h-118z" />
    <glyph glyph-name="glyph366" unicode="&#x1ef5;" horiz-adv-x="408" 
d="M81 0l-71 510h148l45 -422h2l45 422h148l-85 -570q-11 -73 -52 -102q-37 -26 -113 -26q-38 0 -66 14v100q32 -8 41 -8q29 0 44 17q6 7 9 29q0 3 5 36h-100zM347 -134v84h106v-84h-106z" />
    <glyph glyph-name="glyph367" unicode="&#x1ef6;" 
d="M152 0v234l-152 490h164l67 -326h2l67 326h164l-152 -490v-234h-160zM155 923q0 41 15.5 58.5t55.5 18.5q52 1 70.5 -17t18.5 -71q0 -31 -4.5 -43t-27 -30t-22.5 -30v-19l-31 -20l-31 20v32q0 20 7 30q5 7 24 19q16 10 19 19q2 6 2 27q0 30 -18 30q-16 0 -16 -15v-34z
" />
    <glyph glyph-name="glyph368" unicode="&#x1ef7;" horiz-adv-x="408" 
d="M81 0l-71 510h148l45 -422h2l45 422h148l-85 -570q-11 -73 -52 -102q-37 -26 -113 -26q-38 0 -66 14v100q32 -8 41 -8q29 0 44 17q6 7 9 29q0 3 5 36h-100zM132 701q0 39 14.5 56t52.5 18q50 1 67.5 -16t17.5 -68q0 -31 -3 -39q-4 -12 -26 -29t-22 -30v-18l-30 -19
l-29 19v31q0 28 29 46q15 9 18 18q2 6 2 26q0 28 -17 28q-15 0 -15 -14v-32z" />
    <glyph glyph-name="glyph369" unicode="&#x1ef8;" 
d="M152 0v234l-152 490h164l67 -326h2l67 326h164l-152 -490v-234h-160zM119 780h-52q52 99 127 99q18 0 53.5 -14.5t48.5 -14.5q35 0 48 33h53q-44 -97 -120 -98q-18 0 -56.5 13.5t-54.5 13.5q-33 0 -47 -32z" />
    <glyph glyph-name="glyph370" unicode="&#x1ef9;" horiz-adv-x="408" 
d="M81 0l-71 510h148l45 -422h2l45 422h148l-85 -570q-11 -73 -52 -102q-37 -26 -113 -26q-38 0 -66 14v100q32 -8 41 -8q29 0 44 17q6 7 9 29q0 3 5 36h-100zM101 566h-46q45 89 114 89q16 0 48 -13t44 -13q31 0 43 30h47q-40 -89 -108 -89q-16 0 -50.5 12.5t-48.5 12.5
q-30 0 -43 -29z" />
    <glyph glyph-name="endash" unicode="&#x2013;" horiz-adv-x="500" 
d="M0 209v112h500v-112h-500z" />
    <glyph glyph-name="emdash" unicode="&#x2014;" horiz-adv-x="1000" 
d="M0 209v112h1000v-112h-1000z" />
    <glyph glyph-name="quoteleft" unicode="&#x2018;" horiz-adv-x="222" 
d="M37 412v172q0 67 38 103.5t105 36.5v-76q-59 -9 -59 -63q0 -3 1 -9v-10h63v-154h-148z" />
    <glyph glyph-name="quoteright" unicode="&#x2019;" horiz-adv-x="222" 
d="M37 570v154h148v-172q0 -67 -38 -103.5t-105 -36.5v76q59 9 59 63v9q-1 6 -1 10h-63z" />
    <glyph glyph-name="quotesinglbase" unicode="&#x201a;" horiz-adv-x="222" 
d="M42 -158v0v76q59 9 59 63v9q-1 6 -1 10h-63v154h148v-172q0 -67 -38 -103.5t-105 -36.5z" />
    <glyph glyph-name="quotedblleft" unicode="&#x201c;" horiz-adv-x="407" 
d="M226 412v172q0 67 38 103.5t105 36.5v-76q-59 -9 -59 -63q0 -12 1 -19h63v-154h-148zM33 412v172q0 67 38 103.5t105 36.5v-76q-59 -9 -59 -63q0 -12 1 -19h63v-154h-148z" />
    <glyph glyph-name="quotedblright" unicode="&#x201d;" horiz-adv-x="407" 
d="M38 412v0v76q59 9 59 63q0 12 -1 19h-63v154h148v-172q0 -67 -38 -103.5t-105 -36.5zM231 412v0v76q59 9 59 63q0 12 -1 19h-63v154h148v-172q0 -67 -38 -103.5t-105 -36.5z" />
    <glyph glyph-name="quotedblbase" unicode="&#x201e;" horiz-adv-x="407" 
d="M226 0v154h148v-172q0 -67 -38 -103.5t-105 -36.5v76q59 9 59 63q0 12 -1 19h-63zM33 0v154h148v-172q0 -67 -38 -103.5t-105 -36.5v76q59 9 59 63q0 12 -1 19h-63z" />
    <glyph glyph-name="dagger" unicode="&#x2020;" horiz-adv-x="408" 
d="M33 410v136h97v178h148v-178h97v-136h-97v-410h-148v410h-97z" />
    <glyph glyph-name="daggerdbl" unicode="&#x2021;" horiz-adv-x="408" 
d="M45 157v136h85v143h-85v136h85v152h148v-152h85v-136h-85v-143h85v-136h-85v-157h-148v157h-85z" />
    <glyph glyph-name="bullet" unicode="&#x2022;" horiz-adv-x="500" 
d="M69 362q0 76 52.5 128.5t128.5 52.5t128.5 -52.5t52.5 -128.5t-52.5 -128.5t-128.5 -52.5t-128.5 52.5t-52.5 128.5z" />
    <glyph glyph-name="ellipsis" unicode="&#x2026;" horiz-adv-x="1000" 
d="M93 0v154h148v-154h-148zM426 0v154h148v-154h-148zM759 0v154h148v-154h-148z" />
    <glyph glyph-name="perthousand" unicode="&#x2030;" horiz-adv-x="1000" 
d="M828 314v-203q0 -19 27 -19t27 19v203q0 19 -27 19t-27 -19zM728 119v197q0 67 29.5 95t97.5 28q72 0 99.5 -25.5t27.5 -97.5v-197q0 -67 -30 -97t-97 -30q-70 0 -98.5 28.5t-28.5 98.5zM433 119v197q0 67 29.5 95t97.5 28q72 0 99.5 -25.5t27.5 -97.5v-197
q0 -67 -30 -97t-97 -30q-70 0 -98.5 28.5t-28.5 98.5zM533 314v-203q0 -19 27 -19t27 19v203q0 19 -27 19t-27 -19zM18 412v197q0 67 29.5 95t97.5 28q72 0 99.5 -25.5t27.5 -97.5v-197q0 -67 -30 -97t-97 -30q-70 0 -98.5 28.5t-28.5 98.5zM118 607v-203q0 -19 27 -19
t27 19v203q0 19 -27 19t-27 -19zM103 -6l395 737h104l-395 -737h-104z" />
    <glyph glyph-name="guilsinglleft" unicode="&#x2039;" horiz-adv-x="333" 
d="M134 88l-88 177l88 177h153l-88 -177l88 -177h-153z" />
    <glyph glyph-name="guilsinglright" unicode="&#x203a;" horiz-adv-x="333" 
d="M46 88l88 177l-88 177h153l88 -177l-88 -177h-153z" />
    <glyph glyph-name="fraction" unicode="&#x2044;" horiz-adv-x="167" 
d="M-166 -8l395 740h104l-395 -740h-104z" />
    <glyph glyph-name="franc" unicode="&#x20a3;" horiz-adv-x="1035" 
d="M55 0v724h313v-130h-147v-179h134v-130h-134v-285h-166zM699 0v510h142v-51h2q15 35 39 48q21 11 62 11q44 0 64 -15q23 -18 23 -61v-138h-124v76q0 20 -30 20t-30 -27v-373h-148z" />
    <glyph glyph-name="u20AB" unicode="&#x20ab;" horiz-adv-x="393" 
d="M197 501q-48 0 -84 -88q-20 -49 -20 -90q0 -51 39 -51q41 0 74 71q28 60 28 107q0 51 -37 51zM200 267q-53 -62 -106 -62q-91 0 -91 102q0 81 54 153q59 78 137 78q34 0 61 -24l20 75h-100l10 36h100l2 16q0 31 -48 32l7 33q68 2 128 14l15 3q6 0 6 -9q-1 -2 -3 -12
l-19 -77h65l-10 -36h-65l-69 -280q-5 -20 -5 -27q0 -15 12 -15q6 0 49 42l20 -18q-70 -86 -117 -86q-43 0 -53 62zM9 160h221v-56h-221v56z" />
    <glyph glyph-name="trademark" unicode="&#x2122;" horiz-adv-x="1000" 
d="M830 312v281l-2 1l-98 -282h-82l-98 282h-2v-282h-106v412h153l94 -252l94 252h153v-412h-106zM158 312v324h-114v88h340v-88h-114v-324h-112z" />
    <glyph glyph-name="minus" unicode="&#x2212;" horiz-adv-x="600" 
d="M47 197v112h506v-112h-506z" />
    <glyph glyph-name="SF370000" unicode="&#x255f;" horiz-adv-x="718" 
d="M300 298l-39 326h-2l-39 -326h80zM16 0l109 724h270l109 -724h-169l-21 174h-108l-21 -174h-169z" />
    <glyph glyph-name="SF420000" unicode="&#x2560;" horiz-adv-x="681" 
d="M55 0v724h319v-130h-153v-159h142v-124h-142v-181h165v-130h-331z" />
    <glyph glyph-name="SF190000" unicode="&#x2561;" horiz-adv-x="429" 
d="M65 0v724h166v-724h-166z" />
    <glyph glyph-name="SF200000" unicode="&#x2562;" horiz-adv-x="773" 
d="M303 150v424q0 34 -43 34t-43 -34v-424q0 -34 43 -34t43 34zM45 141v442q0 91 66 125q47 24 149 24t149 -24q66 -34 66 -125v-442q0 -91 -66 -125q-47 -24 -149 -24t-149 24q-66 34 -66 125z" />
    <glyph glyph-name="SF230000" unicode="&#x2563;" horiz-adv-x="811" 
d="M470 724v-551q0 -112 -55 -151q-43 -30 -155 -30t-155 30q-55 39 -55 151v551h166v-556q0 -46 44 -46t44 46v556h166z" />
    <glyph glyph-name="SF470000" unicode="&#x2564;" horiz-adv-x="699" 
d="M152 0v234l-152 490h164l67 -326h2l67 326h164l-152 -490v-234h-160z" />
    <glyph glyph-name="SF480000" unicode="&#x2565;" horiz-adv-x="541" 
d="M45 364v64q0 61 56 80q30 10 107 10q106 0 144 -25q45 -30 45 -119v-374h-142v43h-2q-23 -31 -44.5 -41t-62.5 -10q-75 0 -103 48q-20 35 -20 117q0 78 24 113q30 43 104 43q58 0 98 -33v113q0 25 -38 25q-36 0 -36 -26v-28h-130zM177 176v-29q0 -43 36 -43t36 37v41
q0 37 -36 37t-36 -43z" />
    <glyph glyph-name="SF410000" unicode="&#x2566;" horiz-adv-x="431" 
d="M37 154v202q0 95 52 132q43 30 143 30q92 0 136 -24q59 -33 59 -117v-158h-236v-86q0 -23 11 -30q8 -5 33 -5q42 0 42 36v24h150v-29q0 -88 -56 -117q-39 -20 -139 -20t-143 30q-52 37 -52 132zM191 388v-75h82v75q0 30 -41 30t-41 -30z" />
    <glyph glyph-name="SF450000" unicode="&#x2567;" horiz-adv-x="314" 
d="M47 0v510h148v-510h-148zM47 606v118h148v-118h-148z" />
    <glyph glyph-name="SF460000" unicode="&#x2568;" horiz-adv-x="314" 
d="M47 0v510h148v-510h-148z" />
    <glyph glyph-name="SF400000" unicode="&#x2569;" horiz-adv-x="498" 
d="M37 154v202q0 95 52 132q43 30 143 30t143 -30q52 -37 52 -132v-202q0 -95 -52 -132q-43 -30 -143 -30t-143 30q-52 37 -52 132zM191 369v-228q0 -22 9 -29.5t32 -7.5t32 7.5t9 29.5v228q0 22 -9 29.5t-32 7.5t-32 -7.5t-9 -29.5z" />
    <glyph glyph-name="SF540000" unicode="&#x256a;" horiz-adv-x="557" 
d="M47 109v401h148v-365q0 -35 38 -35q36 0 36 35v365h148v-510h-148v56h-2q-30 -64 -104 -64q-116 0 -116 117z" />
    <glyph glyph-name="SF530000" unicode="&#x256b;" horiz-adv-x="497" 
d="M81 0l-71 510h148l45 -422h2l45 422h148l-85 -570q-11 -73 -52 -102q-37 -26 -113 -26q-38 0 -66 14v100q32 -8 41 -8q29 0 44 17q6 7 9 29q0 3 5 36h-100z" />
    <glyph glyph-name="circle" unicode="&#x25cb;" horiz-adv-x="718" 
d="M172 808l115 148h124l115 -148h-113l-64 82l-64 -82h-113zM241 996l92 148h155l-148 -148h-99z" />
    <glyph glyph-name="H18533" unicode="&#x25cf;" horiz-adv-x="718" 
d="M172 808l115 148h124l115 -148h-113l-64 82l-64 -82h-113zM415 997l-148 148h155l92 -148h-99z" />
    <glyph glyph-name="invbullet" unicode="&#x25d8;" horiz-adv-x="718" 
d="M172 808l115 148h124l115 -148h-113l-64 82l-64 -82h-113zM614 903q9 26 11 64q1 11 8 13q2 0 8 1q67 11 67 54q0 35 -28 35q-5 0 -14 -1t-14 -1q-21 0 -21 18q0 28 32 28q47 0 76.5 -25t25.5 -71q-6 -59 -87 -81q-25 -7 -31 -34h-33z" />
    <glyph glyph-name="invcircle" unicode="&#x25d9;" horiz-adv-x="718" 
d="M172 808l115 148h124l115 -148h-113l-64 82l-64 -82h-113zM277 1014v0h-64q25 125 117 125q24 0 72 -19t65 -19q40 0 47 43h65q-7 -51 -31 -84q-29 -40 -77 -40q-26 0 -76.5 17.5t-73.5 17.5q-39 0 -44 -41z" />
    <glyph glyph-name="fi" unicode="&#xf001;" horiz-adv-x="537" 
d="M10 398v112h42v102q0 55 44 89q40 31 97 31q54 0 80 -4v-104q-10 2 -14 2h-7q-52 0 -52 -39v-77h71v-112h-71v-398h-148v398h-42zM342 0v510h148v-510h-148zM342 606v118h148v-118h-148z" />
    <glyph glyph-name="fl" unicode="&#xf002;" horiz-adv-x="537" 
d="M342 0v724h148v-724h-148zM10 398v112h42v102q0 55 44 89q40 31 97 31q54 0 80 -4v-104q-10 2 -14 2h-7q-52 0 -52 -39v-77h71v-112h-71v-398h-148v398h-42z" />
    <glyph glyph-name="periodcentered" horiz-adv-x="250" 
d="M36 287q0 37 26 63t63 26t63 -26t26 -63t-26 -63t-63 -26t-63 26t-26 63z" />
    <glyph glyph-name="HT" horiz-adv-x="250" 
 />
    <glyph glyph-name="nonmarkingreturn" horiz-adv-x="250" 
 />
    <glyph glyph-name="glyph233" horiz-adv-x="250" 
 />
    <glyph glyph-name="glyph234" horiz-adv-x="250" 
 />
    <glyph glyph-name="glyph233" horiz-adv-x="250" 
 />
    <glyph glyph-name="glyph234" horiz-adv-x="250" 
 />
    <glyph glyph-name="glyph231" horiz-adv-x="250" 
 />
    <glyph glyph-name="glyph232" horiz-adv-x="278" 
 />
    <glyph glyph-name="glyph275" horiz-adv-x="249" 
 />
    <glyph glyph-name="glyph276" horiz-adv-x="249" 
 />
    <glyph glyph-name="glyph261" horiz-adv-x="500" 
d="M253 522q9 26 11 64q1 11 8 13q2 0 8 1q67 11 67 54q0 35 -28 35q-5 0 -14 -1t-14 -1q-21 0 -21 18q0 28 32 28q47 0 76.5 -25t25.5 -71q-6 -59 -87 -81q-25 -7 -31 -34h-33z" />
    <glyph glyph-name="glyph262" horiz-adv-x="541" 
d="M-31 576l115 148h124l115 -148h-113l-64 82l-64 -82h-113zM37 765l92 148h155l-148 -148h-99z" />
    <glyph glyph-name="glyph263" horiz-adv-x="541" 
d="M-31 576l115 148h124l115 -148h-113l-64 82l-64 -82h-113zM212 765l-148 148h155l92 -148h-99z" />
    <glyph glyph-name="glyph264" horiz-adv-x="541" 
d="M-31 576l115 148h124l115 -148h-113l-64 82l-64 -82h-113zM411 671q9 26 11 64q1 11 8 13q2 0 8 1q67 11 67 54q0 35 -28 35q-5 0 -14 -1t-14 -1q-21 0 -21 18q0 28 32 28q47 0 76.5 -25t25.5 -71q-6 -59 -87 -81q-25 -7 -31 -34h-33z" />
    <glyph glyph-name="glyph265" horiz-adv-x="541" 
d="M-31 576l115 148h124l115 -148h-113l-64 82l-64 -82h-113zM74 782v0h-64q25 125 117 125q24 0 72 -19t65 -19q40 0 47 43h65q-7 -51 -31 -84q-29 -40 -77 -40q-26 0 -76.5 17.5t-73.5 17.5q-39 0 -44 -41z" />
    <glyph glyph-name="glyph266" horiz-adv-x="541" 
d="M-16 723h64q13 -69 103 -69t103 69h64q-18 -145 -167 -145t-167 145zM116 765l92 148h155l-148 -148h-99z" />
    <glyph glyph-name="glyph267" horiz-adv-x="541" 
d="M-16 723h64q13 -69 103 -69t103 69h64q-18 -145 -167 -145t-167 145zM159 765l-148 148h155l92 -148h-99z" />
    <glyph glyph-name="glyph268" horiz-adv-x="541" 
d="M-16 723h64q13 -69 103 -69t103 69h64q-18 -145 -167 -145t-167 145zM306 671q9 26 11 64q1 11 8 13q2 0 8 1q67 11 67 54q0 35 -28 35q-5 0 -14 -1t-14 -1q-21 0 -21 18q0 28 32 28q47 0 76.5 -25t25.5 -71q-6 -59 -87 -81q-25 -7 -31 -34h-33z" />
    <glyph glyph-name="glyph269" horiz-adv-x="541" 
d="M-16 723h64q13 -69 103 -69t103 69h64q-18 -145 -167 -145t-167 145zM74 782v0h-64q25 125 117 125q24 0 72 -19t65 -19q40 0 47 43h65q-7 -51 -31 -84q-29 -40 -77 -40q-26 0 -76.5 17.5t-73.5 17.5q-39 0 -44 -41z" />
    <glyph glyph-name="glyph270" horiz-adv-x="249" 
 />
  </font>
</defs>
</svg>
